<?xml version="1.0" encoding="UTF-8"?>
<!DOCTYPE svg PUBLIC "-//W3C//DTD SVG 1.1//EN" "http://www.w3.org/Graphics/SVG/1.1/DTD/svg11.dtd">
<!-- Creator: CorelDRAW 2018 (64 Bit Versão de avaliação) -->
<svg xmlns="http://www.w3.org/2000/svg" xml:space="preserve" width="1000px" height="958px" version="1.1" shape-rendering="geometricPrecision" text-rendering="geometricPrecision" image-rendering="optimizeQuality" fill-rule="evenodd" clip-rule="evenodd"
viewBox="0 0 733.38 702.92"
 xmlns:xlink="http://www.w3.org/1999/xlink">
 <defs>
    <linearGradient id="id0" gradientUnits="userSpaceOnUse" x1="259.79" y1="259.98" x2="324.81" y2="182.88">
     <stop offset="0" stop-opacity="1" stop-color="#B0AFB5"/>
     <stop offset="0.0392157" stop-opacity="1" stop-color="#B0AFB5"/>
     <stop offset="0.301961" stop-opacity="1" stop-color="white"/>
     <stop offset="0.631373" stop-opacity="1" stop-color="#98959A"/>
     <stop offset="1" stop-opacity="1" stop-color="#77767B"/>
    </linearGradient>
    <linearGradient id="id1" gradientUnits="userSpaceOnUse" x1="291.92" y1="170.15" x2="360.63" y2="101.45">
     <stop offset="0" stop-opacity="1" stop-color="#B0AFB5"/>
     <stop offset="0.0392157" stop-opacity="1" stop-color="#B0AFB5"/>
     <stop offset="0.301961" stop-opacity="1" stop-color="white"/>
     <stop offset="0.631373" stop-opacity="1" stop-color="#98959A"/>
     <stop offset="1" stop-opacity="1" stop-color="#77767B"/>
    </linearGradient>
    <linearGradient id="id2" gradientUnits="userSpaceOnUse" x1="367.58" y1="253.88" x2="475.15" y2="150.99">
     <stop offset="0" stop-opacity="1" stop-color="#B0AFB5"/>
     <stop offset="0.0392157" stop-opacity="1" stop-color="#B0AFB5"/>
     <stop offset="0.301961" stop-opacity="1" stop-color="white"/>
     <stop offset="0.631373" stop-opacity="1" stop-color="#98959A"/>
     <stop offset="1" stop-opacity="1" stop-color="#77767B"/>
    </linearGradient>
    <linearGradient id="id3" gradientUnits="userSpaceOnUse" x1="426.13" y1="283.86" x2="480.86" y2="225.75">
     <stop offset="0" stop-opacity="1" stop-color="#B0AFB5"/>
     <stop offset="0.0392157" stop-opacity="1" stop-color="#B0AFB5"/>
     <stop offset="0.301961" stop-opacity="1" stop-color="white"/>
     <stop offset="0.631373" stop-opacity="1" stop-color="#98959A"/>
     <stop offset="1" stop-opacity="1" stop-color="#77767B"/>
    </linearGradient>
    <linearGradient id="id4" gradientUnits="userSpaceOnUse" x1="499.18" y1="366.43" x2="500.6" y2="365.01">
     <stop offset="0" stop-opacity="1" stop-color="#B0AFB5"/>
     <stop offset="0.0392157" stop-opacity="1" stop-color="#B0AFB5"/>
     <stop offset="0.301961" stop-opacity="1" stop-color="white"/>
     <stop offset="0.631373" stop-opacity="1" stop-color="#98959A"/>
     <stop offset="1" stop-opacity="1" stop-color="#77767B"/>
    </linearGradient>
    <linearGradient id="id5" gradientUnits="userSpaceOnUse" x1="352.24" y1="381.27" x2="456.85" y2="272.96">
     <stop offset="0" stop-opacity="1" stop-color="#B0AFB5"/>
     <stop offset="0.0392157" stop-opacity="1" stop-color="#B0AFB5"/>
     <stop offset="0.301961" stop-opacity="1" stop-color="white"/>
     <stop offset="0.631373" stop-opacity="1" stop-color="#98959A"/>
     <stop offset="1" stop-opacity="1" stop-color="#77767B"/>
    </linearGradient>
    <linearGradient id="id6" gradientUnits="userSpaceOnUse" x1="242.06" y1="429.52" x2="377.34" y2="291.21">
     <stop offset="0" stop-opacity="1" stop-color="#B0AFB5"/>
     <stop offset="0.0392157" stop-opacity="1" stop-color="#B0AFB5"/>
     <stop offset="0.301961" stop-opacity="1" stop-color="white"/>
     <stop offset="0.631373" stop-opacity="1" stop-color="#98959A"/>
     <stop offset="1" stop-opacity="1" stop-color="#77767B"/>
    </linearGradient>
    <linearGradient id="id7" gradientUnits="userSpaceOnUse" x1="211.13" y1="398.07" x2="306.59" y2="318.73">
     <stop offset="0" stop-opacity="1" stop-color="#B0AFB5"/>
     <stop offset="0.0392157" stop-opacity="1" stop-color="#B0AFB5"/>
     <stop offset="0.301961" stop-opacity="1" stop-color="white"/>
     <stop offset="0.631373" stop-opacity="1" stop-color="#98959A"/>
     <stop offset="1" stop-opacity="1" stop-color="#77767B"/>
    </linearGradient>
    <linearGradient id="id8" gradientUnits="userSpaceOnUse" x1="218.48" y1="334.88" x2="308.32" y2="256.39">
     <stop offset="0" stop-opacity="1" stop-color="#B0AFB5"/>
     <stop offset="0.0392157" stop-opacity="1" stop-color="#B0AFB5"/>
     <stop offset="0.301961" stop-opacity="1" stop-color="white"/>
     <stop offset="0.631373" stop-opacity="1" stop-color="#98959A"/>
     <stop offset="1" stop-opacity="1" stop-color="#77767B"/>
    </linearGradient>
    <linearGradient id="id9" gradientUnits="userSpaceOnUse" x1="1.84" y1="544.49" x2="723.19" y2="544.49">
     <stop offset="0" stop-opacity="1" stop-color="white"/>
     <stop offset="0.168627" stop-opacity="1" stop-color="white"/>
     <stop offset="0.588235" stop-opacity="1" stop-color="#98959A"/>
     <stop offset="1" stop-opacity="1" stop-color="#4D4B4D"/>
    </linearGradient>
    <linearGradient id="id10" gradientUnits="userSpaceOnUse" x1="255.24" y1="425.16" x2="496.39" y2="666.79">
     <stop offset="0" stop-opacity="1" stop-color="white"/>
     <stop offset="0.168627" stop-opacity="1" stop-color="white"/>
     <stop offset="0.458824" stop-opacity="1" stop-color="#98959A"/>
     <stop offset="1" stop-opacity="1" stop-color="#1E120D"/>
    </linearGradient>
 </defs>
 <g id="Camada_x0020_1">
  <metadata id="CorelCorpID_0Corel-Layer"/>
  <g id="_1910437278928">
   <path fill="white" fill-rule="nonzero" d="M554.67 288.87c0,114.72 -92.99,207.71 -207.71,207.71 -114.71,0 -207.71,-92.99 -207.71,-207.71 0,-114.71 93,-207.71 207.71,-207.71 114.72,0 207.71,93 207.71,207.71z"/>
   <path fill="#E4472D" fill-rule="nonzero" d="M348 491.34c-111.33,0 -201.58,-90.25 -201.58,-201.57 0,-111.33 90.25,-201.58 201.58,-201.58 111.33,0 201.58,90.25 201.58,201.58 0,111.32 -90.25,201.57 -201.58,201.57zm-4.45 -489.56c-160.03,0 -289.76,129.73 -289.76,289.76 0,160.04 129.73,289.77 289.76,289.77 160.04,0 289.77,-129.73 289.77,-289.77 0,-160.03 -129.73,-289.76 -289.77,-289.76z"/>
   <path fill="none" fill-rule="nonzero" stroke="#1E120D" stroke-width="3.56" stroke-miterlimit="10" d="M348 491.34c-111.33,0 -201.58,-90.25 -201.58,-201.57 0,-111.33 90.25,-201.58 201.58,-201.58 111.33,0 201.58,90.25 201.58,201.58 0,111.32 -90.25,201.57 -201.58,201.57zm-4.45 -489.56c-160.03,0 -289.76,129.73 -289.76,289.76 0,160.04 129.73,289.77 289.76,289.77 160.04,0 289.77,-129.73 289.77,-289.77 0,-160.03 -129.73,-289.76 -289.77,-289.76z"/>
   <path fill="url(#id0)" d="M245.9 194.02c-34.06,52.4 7.86,73.35 7.86,73.35 -30.13,-55.01 90.39,-41.91 90.39,-41.91l0 0c-9.18,-10.48 -49.78,-18.34 -49.78,-18.34l0 0c7.86,-13.1 2.62,-48.47 2.62,-48.47l0 0c-33.73,9.98 -51.09,35.37 -51.09,35.37l0 0z"/>
   <path fill="none" fill-rule="nonzero" stroke="#89878C" stroke-width="0.89" stroke-miterlimit="10" d="M253.76 267.37c-30.13,-55.01 90.38,-41.91 90.38,-41.91 -9.16,-10.48 -49.77,-18.34 -49.77,-18.34 7.86,-13.1 2.62,-48.47 2.62,-48.47 -33.73,9.98 -51.09,35.37 -51.09,35.37 -34.06,52.39 7.86,73.35 7.86,73.35z"/>
   <path fill="url(#id1)" d="M276.6 154.83c25.17,-12.26 38.07,-12.26 38.07,-12.26l0 0c-10.33,14.84 -7.1,37.42 -7.1,37.42l0 0c29.68,-52.9 68.39,-63.23 68.39,-63.23l0 0c-4.93,-0.89 -9.8,-1.29 -14.56,-1.29l0 0c-47.04,-0.01 -84.8,39.36 -84.8,39.36l0 0z"/>
   <path fill="none" fill-rule="nonzero" stroke="#89878C" stroke-width="0.89" stroke-miterlimit="10" d="M307.57 179.99c29.68,-52.9 68.39,-63.23 68.39,-63.23 -53.55,-9.67 -99.36,38.07 -99.36,38.07 25.16,-12.26 38.07,-12.26 38.07,-12.26 -10.32,14.84 -7.1,37.42 -7.1,37.42z"/>
   <path fill="url(#id2)" d="M309.51 196.76l21.93 0.65c5.52,-8.62 11.45,-15.85 17.66,-21.87l0 0c1.59,5.85 5.49,10.75 10.68,13.64l0 0c-5.06,-0.19 -8.34,-0.81 -8.34,-0.81l0 0 -9.03 13.55c38.71,14.84 81.29,-14.19 81.29,-14.19l0 0c41.93,-13.55 94.84,45.16 94.84,45.16 -28.39,-90.32 -112.26,-63.87 -112.26,-63.87l0 0c-5.13,7.78 -11.99,12.65 -19.12,15.66l0 0c3.62,-3.97 5.84,-9.24 5.84,-15.03l0 0c0,-6.51 -2.79,-12.34 -7.23,-16.43l0 0c53,-17.1 108.89,17.74 108.89,17.74l0 0c-32.25,-53.55 -94.19,-48.39 -94.19,-48.39l0 0c-1.23,-0.09 -2.46,-0.14 -3.68,-0.14l0 0c-49.2,0 -87.28,74.33 -87.28,74.33zm71.81 -27.11c0,-5.5 -4.17,-10.03 -9.53,-10.61l0 0c3.02,-1.56 6.06,-2.91 9.11,-4.09l0 0c4.64,3.24 7.68,8.61 7.68,14.7l0 0c0,9.91 -8.03,17.94 -17.93,17.94l0 0c-9.1,0 -16.59,-6.77 -17.76,-15.54l0 0c2.55,-2.25 5.15,-4.3 7.79,-6.18l0 0c-0.45,1.18 -0.71,2.45 -0.71,3.78l0 0c0,5.89 4.78,10.67 10.68,10.67l0 0c5.89,0 10.67,-4.78 10.67,-10.67l0 0z"/>
   <path fill="none" fill-rule="nonzero" stroke="#89878C" stroke-width="0.89" stroke-miterlimit="10" d="M388.58 169.65c0,9.91 -8.03,17.94 -17.94,17.94 -9.09,0 -16.58,-6.77 -17.75,-15.54 2.55,-2.25 5.15,-4.3 7.79,-6.18 -0.45,1.18 -0.71,2.45 -0.71,3.78 0,5.89 4.78,10.67 10.67,10.67 5.9,0 10.68,-4.78 10.68,-10.67 0,-5.5 -4.17,-10.03 -9.52,-10.61 3.01,-1.56 6.05,-2.91 9.1,-4.09 4.64,3.24 7.68,8.61 7.68,14.7zm-79.07 27.11l21.93 0.65c5.52,-8.62 11.45,-15.85 17.66,-21.87 1.59,5.85 5.49,10.75 10.68,13.64 -5.06,-0.19 -8.34,-0.8 -8.34,-0.8l-9.03 13.54c38.71,14.84 81.29,-14.19 81.29,-14.19 41.93,-13.55 94.84,45.16 94.84,45.16 -28.39,-90.32 -112.26,-63.87 -112.26,-63.87 -5.13,7.79 -11.99,12.65 -19.12,15.66 3.62,-3.97 5.84,-9.24 5.84,-15.03 0,-6.5 -2.79,-12.34 -7.23,-16.43 53,-17.1 108.89,17.74 108.89,17.74 -32.25,-53.55 -94.19,-48.39 -94.19,-48.39 -50.96,-3.87 -90.96,74.19 -90.96,74.19z"/>
   <path fill="url(#id3)" d="M420.47 204.5c-10.32,6.45 -59.35,10.33 -59.35,10.33l0 0c125.8,21.29 161.93,114.19 161.93,114.19l0 0c10.97,-110.32 -81.93,-126.45 -81.93,-126.45l0 0c-4.85,-2.42 -8.62,-3.28 -11.53,-3.29 -7.16,0 -9.12,5.22 -9.12,5.22l0 0z"/>
   <path fill="none" fill-rule="nonzero" stroke="#89878C" stroke-width="0.89" stroke-miterlimit="10" d="M441.12 202.57c-16.78,-8.39 -20.65,1.93 -20.65,1.93 -10.32,6.45 -59.35,10.33 -59.35,10.33 125.8,21.29 161.93,114.19 161.93,114.19 10.97,-110.32 -81.93,-126.45 -81.93,-126.45z"/>
   <path fill="url(#id4)" d="M499.82 367.08l0 0c0.07,-0.92 0.09,-1.82 0.13,-2.72 -0.01,1.67 -0.12,2.69 -0.13,2.72z"/>
   <path fill="none" fill-rule="nonzero" stroke="#89878C" stroke-width="0.89" stroke-miterlimit="10" d="M499.95 364.36c-0.04,0.9 -0.06,1.8 -0.12,2.72 0,0 0.11,-1.02 0.12,-2.72z"/>
   <path fill="url(#id5)" d="M404.34 323.21c10.97,-12.26 12.26,-21.93 12.26,-21.93l0 0c48.39,87.09 -1.29,143.22 -1.29,143.22l0 0c49.68,-26.45 52.26,-81.94 52.26,-81.94l0 0c10.97,29.68 3.22,51.62 3.22,51.62l0 0c29.68,-41.94 13.55,-80.65 13.55,-80.65l0 0c14.24,8.65 15.65,24.49 15.61,30.83l0 0c5.21,-113.8 -143.35,-139.21 -143.35,-139.21 52.9,44.51 47.74,98.06 47.74,98.06l0 0z"/>
   <path fill="none" fill-rule="nonzero" stroke="#89878C" stroke-width="0.89" stroke-miterlimit="10" d="M356.6 225.15c52.9,44.51 47.74,98.06 47.74,98.06 10.97,-12.26 12.26,-21.93 12.26,-21.93 48.39,87.09 -1.29,143.22 -1.29,143.22 49.68,-26.45 52.26,-81.94 52.26,-81.94 10.96,29.68 3.22,51.62 3.22,51.62 29.68,-41.94 13.55,-80.65 13.55,-80.65 14.24,8.65 15.65,24.5 15.61,30.83 5.21,-113.8 -143.35,-139.21 -143.35,-139.21z"/>
   <path fill="url(#id6)" d="M334.67 349.02c21.29,-5.81 32.9,-28.39 32.9,-28.39l0 0c3.87,120.64 -151.61,99.35 -151.61,99.35l0 0c80,58.07 163.22,2.58 163.22,2.58l0 0c-13.55,26.45 -41.29,32.91 -41.29,32.91l0 0c107.1,1.93 77.42,-126.45 77.42,-126.45l0 0c-9.68,17.42 -27.74,20.64 -27.74,20.64l0 0c14.19,-90.32 -65.81,-113.54 -65.81,-113.54l0 0c43.23,48.38 12.91,112.9 12.91,112.9l0 0z"/>
   <path fill="none" fill-rule="nonzero" stroke="#89878C" stroke-width="0.89" stroke-miterlimit="10" d="M415.31 329.02c-9.68,17.42 -27.74,20.64 -27.74,20.64 14.19,-90.32 -65.81,-113.54 -65.81,-113.54 43.23,48.38 12.91,112.9 12.91,112.9 21.29,-5.81 32.9,-28.39 32.9,-28.39 3.87,120.64 -151.61,99.35 -151.61,99.35 80,58.07 163.22,2.58 163.22,2.58 -13.55,26.45 -41.29,32.91 -41.29,32.91 107.1,1.93 77.42,-126.45 77.42,-126.45z"/>
   <path fill="url(#id7)" d="M307.57 380.63c0,0 7.74,-7.1 12.9,-25.16 0,0 -67.74,47.09 -154.83,2.58 0,0 23.22,42.58 81.29,43.87l0 0c0,0 75.48,10.32 103.87,-46.45 0,0 -21.29,27.74 -43.23,25.16l0 0z"/>
   <path fill="none" fill-rule="nonzero" stroke="#89878C" stroke-width="0.89" stroke-miterlimit="10" d="M350.8 355.47c0,0 -21.29,27.74 -43.23,25.16 0,0 7.74,-7.1 12.9,-25.16 0,0 -67.74,47.1 -154.83,2.58 0,0 23.22,42.58 81.29,43.87 0,0 75.48,10.32 103.87,-46.45z"/>
   <path fill="url(#id8)" d="M190.8 329.02c63.22,57.41 118.71,4.51 118.71,4.51l0 0c24.51,-40.64 -3.87,-89.67 -3.87,-89.67l0 0c-8.39,126.45 -114.84,85.16 -114.84,85.16z"/>
   <path fill="none" fill-rule="nonzero" stroke="#89878C" stroke-width="0.89" stroke-miterlimit="10" d="M309.51 333.53c24.51,-40.64 -3.87,-89.67 -3.87,-89.67 -8.39,126.45 -114.84,85.16 -114.84,85.16 63.22,57.42 118.71,4.51 118.71,4.51z"/>
   <polygon fill="#1E120D" fill-rule="nonzero" points="146.3,206.74 149.79,198.74 96.99,175.72 93.5,183.72 "/>
   <polygon fill="none" fill-rule="nonzero" stroke="#1E120D" stroke-width="1.78" stroke-miterlimit="10" points="146.3,206.74 149.79,198.73 97,175.71 93.51,183.72 "/>
   <path fill="#1E120D" fill-rule="nonzero" d="M127.31 123.5l-4.37 6.76 17.84 11.52c7.71,4.99 14.04,8.8 20.97,12.49l-0.04 0.23c-6.48,-1.22 -13.81,-2.11 -21.08,-2.5l-30.56 -1.83 -5.15 7.98 48.38 31.26 4.38 -6.77 -18.09 -11.69c-8.48,-5.48 -14.81,-9.4 -21.2,-12.96l0.1 -0.32c6.88,1.32 14.44,2.09 21.58,2.56l30.85 1.92 4.77 -7.38 -48.38 -31.27z"/>
   <path fill="none" fill-rule="nonzero" stroke="#1E120D" stroke-width="1.78" stroke-miterlimit="10" d="M127.32 123.5l-4.37 6.76 17.83 11.53c7.72,4.98 14.04,8.8 20.98,12.48l-0.06 0.23c-6.47,-1.23 -13.79,-2.1 -21.07,-2.5l-30.56 -1.82 -5.14 7.97 48.37 31.26 4.37 -6.77 -18.08 -11.68c-8.48,-5.48 -14.82,-9.4 -21.2,-12.98l0.11 -0.3c6.86,1.31 14.43,2.07 21.56,2.56l30.85 1.92 4.79 -7.4 -48.38 -31.26z"/>
   <polygon fill="#1E120D" fill-rule="nonzero" points="165.18,82.97 137.2,111.31 142.5,116.54 153.4,105.5 189.09,140.73 195.22,134.52 159.53,99.29 170.48,88.2 "/>
   <polygon fill="none" fill-rule="nonzero" stroke="#1E120D" stroke-width="1.78" stroke-miterlimit="10" points="165.19,82.96 137.2,111.31 142.51,116.54 153.41,105.51 189.09,140.73 195.23,134.52 159.54,99.29 170.49,88.2 "/>
   <polygon fill="#1E120D" fill-rule="nonzero" points="231.15,96.97 212.65,110.06 201.6,94.46 218.08,82.79 213.9,76.89 197.42,88.55 187.81,74.96 205.26,62.61 201.04,56.65 176.46,74.05 209.74,121.06 235.37,102.93 "/>
   <polygon fill="none" fill-rule="nonzero" stroke="#1E120D" stroke-width="1.78" stroke-miterlimit="10" points="231.15,96.96 212.66,110.05 201.61,94.45 218.08,82.79 213.9,76.89 197.43,88.55 187.82,74.96 205.27,62.61 201.05,56.65 176.47,74.05 209.75,121.06 235.37,102.92 "/>
   <path fill="#1E120D" fill-rule="nonzero" d="M251.96 64.39c4.36,-4.4 6.36,-10.89 3.27,-17.6 -1.94,-4.23 -5.05,-7.19 -8.91,-8.33 -4.62,-1.42 -9.98,-0.46 -16.82,2.69 -4.71,2.17 -9.15,4.8 -12.21,6.96l23.75 51.63 7.88 -3.62 -10.2 -22.16 4.79 -2.2c5.54,-2.56 9.29,-1.04 13.93,5.26 4.26,5.84 7.61,9.84 9.06,11.01l8.2 -3.78c-1.94,-1.5 -5.72,-6.31 -10.44,-12.43 -3.8,-4.98 -7.68,-7.65 -12.24,-7.29l-0.06 -0.14zm-15.98 3.62l-8.28 -18c0.83,-0.7 2.66,-1.78 5.33,-3.01 5.66,-2.61 11.52,-2.48 14.64,4.28 2.57,5.61 0.21,11.25 -6.36,14.27l-5.33 2.46z"/>
   <path fill="none" fill-rule="nonzero" stroke="#1E120D" stroke-width="1.78" stroke-miterlimit="10" d="M251.96 64.38c4.36,-4.4 6.35,-10.87 3.27,-17.58 -1.95,-4.24 -5.06,-7.2 -8.9,-8.34 -4.63,-1.43 -9.99,-0.46 -16.83,2.69 -4.72,2.17 -9.15,4.79 -12.21,6.95l23.76 51.64 7.86 -3.62 -10.2 -22.16 4.79 -2.2c5.55,-2.55 9.3,-1.05 13.95,5.27 4.25,5.83 7.6,9.84 9.04,11l8.21 -3.78c-1.94,-1.51 -5.73,-6.31 -10.45,-12.43 -3.78,-4.97 -7.66,-7.66 -12.22,-7.3l-0.07 -0.14zm-15.98 3.63l-8.28 -17.99c0.83,-0.71 2.65,-1.8 5.32,-3.03 5.68,-2.61 11.54,-2.49 14.65,4.28 2.58,5.61 0.21,11.26 -6.36,14.28l-5.33 2.46z"/>
   <path fill="#1E120D" fill-rule="nonzero" d="M307.44 17.51l-7.86 1.73 4.56 20.74c1.97,8.96 3.79,16.13 6.12,23.63l-0.19 0.13c-3.75,-5.42 -8.33,-11.21 -13.23,-16.6l-20.42 -22.81 -9.27 2.04 12.37 56.26 7.88 -1.73 -4.63 -21.03c-2.16,-9.86 -3.91,-17.1 -5.94,-24.13l0.3 -0.15c3.96,5.77 8.79,11.63 13.53,16.99l20.56 23.08 8.59 -1.89 -12.37 -56.26z"/>
   <path fill="none" fill-rule="nonzero" stroke="#1E120D" stroke-width="1.78" stroke-miterlimit="10" d="M307.45 17.52l-7.87 1.73 4.57 20.73c1.97,8.97 3.77,16.13 6.11,23.63l-0.2 0.12c-3.74,-5.42 -8.32,-11.19 -13.21,-16.59l-20.43 -22.8 -9.27 2.04 12.38 56.25 7.86 -1.73 -4.62 -21.03c-2.17,-9.85 -3.92,-17.1 -5.93,-24.14l0.28 -0.14c3.97,5.76 8.8,11.64 13.53,17l20.57 23.07 8.6 -1.89 -12.37 -56.25z"/>
   <path fill="#1E120D" fill-rule="nonzero" d="M353.75 15.66l-10.69 -0.11 -18.19 57.43 8.96 0.09 5.14 -16.9 17.61 0.17 5.04 17 9.18 0.09 -17.05 -57.77zm-13.37 33.82l4.76 -15.08c0.99,-3.54 1.95,-7.73 2.82,-11.27l0.15 0.01c0.77,3.55 1.71,7.61 2.75,11.4l4.35 15.09 -14.83 -0.15z"/>
   <path fill="none" fill-rule="nonzero" stroke="#1E120D" stroke-width="1.78" stroke-miterlimit="10" d="M353.74 15.66l-10.69 -0.1 -18.17 57.42 8.95 0.09 5.14 -16.89 17.62 0.17 5.02 16.99 9.19 0.09 -17.06 -57.77zm-13.35 33.83l4.74 -15.09c1.01,-3.53 1.95,-7.74 2.82,-11.26l0.15 0c0.79,3.54 1.73,7.62 2.75,11.39l4.37 15.1 -14.83 -0.14z"/>
   <polygon fill="#1E120D" fill-rule="nonzero" points="418.85,24.71 379.78,16.99 378.34,24.29 393.56,27.3 383.83,76.5 392.39,78.2 402.12,29 417.41,32.02 "/>
   <polygon fill="none" fill-rule="nonzero" stroke="#1E120D" stroke-width="1.78" stroke-miterlimit="10" points="418.86,24.72 379.79,16.99 378.34,24.31 393.56,27.31 383.83,76.5 392.39,78.2 402.12,29.01 417.41,32.03 "/>
   <polygon fill="#1E120D" fill-rule="nonzero" points="411.99,83.45 420.25,86.27 438.86,31.76 430.6,28.94 "/>
   <polygon fill="none" fill-rule="nonzero" stroke="#1E120D" stroke-width="1.78" stroke-miterlimit="10" points="411.99,83.45 420.25,86.27 438.86,31.76 430.6,28.94 "/>
   <path fill="#1E120D" fill-rule="nonzero" d="M476.78 47.78c-13,-7.01 -27.51,-1.34 -36.13,14.63 -8.25,15.31 -5.63,30.26 7.28,37.22 12.34,6.66 26.63,2.82 36.14,-14.81 7.87,-14.58 6.15,-29.79 -7.29,-37.04zm-3.66 6.15c9.07,4.89 7.95,17.12 2.74,26.79 -5.83,10.8 -15.39,17.55 -24.26,12.77 -8.75,-4.72 -8.31,-16.64 -2.77,-26.91 5.36,-9.94 14.93,-17.7 24.29,-12.65z"/>
   <path fill="none" fill-rule="nonzero" stroke="#1E120D" stroke-width="1.78" stroke-miterlimit="10" d="M476.77 47.77c-12.99,-7 -27.51,-1.32 -36.13,14.65 -8.26,15.3 -5.62,30.24 7.3,37.21 12.32,6.65 26.63,2.82 36.13,-14.81 7.87,-14.58 6.15,-29.79 -7.3,-37.05zm-3.66 6.16c9.08,4.89 7.96,17.12 2.74,26.8 -5.83,10.8 -15.37,17.54 -24.25,12.75 -8.75,-4.72 -8.31,-16.63 -2.77,-26.9 5.37,-9.94 14.94,-17.69 24.28,-12.65z"/>
   <path fill="#1E120D" fill-rule="nonzero" d="M543.97 99.17l-5.99 -5.38 -14.18 15.81c-6.13,6.83 -10.88,12.49 -15.62,18.76l-0.22 -0.08c2.22,-6.21 4.25,-13.3 5.77,-20.43l6.6 -29.89 -7.07 -6.34 -38.46 42.88 6 5.39 14.38 -16.03c6.74,-7.52 11.6,-13.16 16.13,-18.91l0.29 0.15c-2.38,6.58 -4.32,13.93 -5.9,20.91l-6.74 30.17 6.55 5.87 38.46 -42.88z"/>
   <path fill="none" fill-rule="nonzero" stroke="#1E120D" stroke-width="1.78" stroke-miterlimit="10" d="M543.97 99.18l-5.99 -5.38 -14.18 15.8c-6.13,6.84 -10.89,12.48 -15.62,18.77l-0.21 -0.1c2.22,-6.2 4.23,-13.29 5.76,-20.41l6.59 -29.9 -7.06 -6.33 -38.46 42.88 6 5.37 14.38 -16.02c6.73,-7.52 11.6,-13.16 16.14,-18.9l0.27 0.14c-2.36,6.58 -4.31,13.94 -5.9,20.9l-6.73 30.17 6.56 5.88 38.45 -42.87z"/>
   <path fill="#1E120D" fill-rule="nonzero" d="M572.51 135.56l-6.18 -8.72 -57.2 18.88 5.17 7.31 16.71 -5.73 10.17 14.38 -10.83 14.04 5.31 7.49 36.85 -47.65zm-35.25 8.97l15.01 -4.98c3.45,-1.26 7.41,-2.94 10.78,-4.3l0.09 0.12c-2.42,2.71 -5.17,5.85 -7.64,8.9l-9.68 12.37 -8.56 -12.11z"/>
   <path fill="none" fill-rule="nonzero" stroke="#1E120D" stroke-width="1.78" stroke-miterlimit="10" d="M572.5 135.56l-6.18 -8.73 -57.19 18.89 5.17 7.31 16.7 -5.73 10.18 14.38 -10.83 14.03 5.31 7.5 36.84 -47.65zm-35.24 8.98l15 -4.99c3.46,-1.25 7.42,-2.94 10.79,-4.31l0.08 0.12c-2.41,2.72 -5.16,5.87 -7.63,8.9l-9.68 12.39 -8.56 -12.11z"/>
   <polygon fill="#1E120D" fill-rule="nonzero" points="557.07,213.65 547.93,193.4 593.71,172.76 590.13,164.8 537.61,188.48 550.33,216.69 "/>
   <polygon fill="none" fill-rule="nonzero" stroke="#1E120D" stroke-width="1.78" stroke-miterlimit="10" points="557.06,213.66 547.93,193.41 593.71,172.77 590.12,164.81 537.62,188.48 550.34,216.69 "/>
   <path fill="url(#id9)" d="M183.16 544.69c-109.87,46.49 -184,92.98 -182.64,92.56l0 0c361.86,-110.45 557.51,-5.26 557.51,-5.26l0 0c-40.72,-146.1 165.16,-160.94 165.16,-160.94l0 0c-46.69,-13.27 -95.5,-18.92 -144.78,-18.92 -141.04,0 -285.87,46.28 -395.25,92.56l0 0z"/>
   <path fill="none" fill-rule="nonzero" stroke="#1E120D" stroke-width="3.56" stroke-miterlimit="10" d="M0.52 637.25c-3.18,0.97 408.14,-255.62 722.67,-166.2 0,0 -205.88,14.84 -165.16,160.94 0,0 -195.65,-105.19 -557.51,5.26"/>
   <path fill="#E4472D" fill-rule="nonzero" d="M128.26 681.74l0 -0.75c0,-0.68 -0.1,-1.36 -0.35,-2.07 -0.25,-0.71 -0.72,-1.07 -1.4,-1.07l-25.18 0c-2.53,0 -4.78,-0.61 -6.82,-1.82 -2.03,-1.22 -3.75,-2.79 -5.21,-4.68 -1.47,-1.9 -2.61,-3.97 -3.36,-6.25 -0.75,-2.25 -1.14,-4.47 -1.14,-6.65 0,-2.03 0.6,-4.32 1.78,-6.89 1.18,-2.53 2.68,-4.96 4.54,-7.28 1.82,-2.33 3.93,-4.26 6.28,-5.83 2.36,-1.53 4.72,-2.32 7.08,-2.32l64.25 0c-1.93,2.86 -4.14,5.72 -6.61,8.57 -2.46,2.86 -5.21,5.72 -8.25,8.58l-41.61 0c-0.89,0 -1.68,0.64 -2.35,1.89 -0.68,1.25 -1.04,2.28 -1.04,3.03l0 0.61c0,0.11 0.18,0.29 0.5,0.57 0.32,0.29 0.57,0.54 0.75,0.72 0.36,0.32 0.86,0.64 1.5,0.93 0.61,0.28 0.96,0.42 1.04,0.42l23.93 0c2.67,0 5,0.65 6.92,1.97 1.93,1.32 3.5,2.96 4.75,4.93 1.22,1.96 2.11,4.11 2.72,6.36 0.57,2.25 0.86,4.35 0.86,6.28l0 0.75c0,2.18 -0.5,4.54 -1.5,7 -1,2.47 -2.33,4.75 -3.97,6.86 -1.64,2.11 -3.53,3.86 -5.68,5.25 -2.14,1.39 -4.35,2.07 -6.6,2.07l-64.26 0c0.39,-0.82 1.25,-2.18 2.57,-4.03 1.32,-1.86 2.72,-3.72 4.18,-5.61 1.47,-1.9 2.82,-3.57 4.07,-5.04 1.25,-1.46 2,-2.21 2.25,-2.21l42.86 0c1.25,0 2,-0.4 2.22,-1.15 0.18,-0.75 0.28,-1.53 0.28,-2.39l0 -0.75zm121.58 21.18l24.32 -66.79 -30.46 0 -30.9 33.54 -6.43 -33.54 -30.46 0 -24.32 66.79 24.18 0 13.6 -37.54 6.93 37.54 8.72 0 34.25 -37.54 -13.61 37.54 24.18 0zm30.25 0l24.18 0 18.15 -49.75 14.89 0c0.68,0 1.75,-0.68 3.21,-2.04 1.47,-1.32 2.97,-2.93 4.54,-4.78 1.54,-1.86 3,-3.72 4.39,-5.61 1.4,-1.89 2.36,-3.43 2.97,-4.61l-63.15 0c-1.18,0.75 -2.57,2 -4.21,3.72 -1.65,1.75 -3.25,3.53 -4.79,5.35 -1.53,1.86 -2.89,3.54 -4,5.04 -1.14,1.54 -1.75,2.46 -1.86,2.79l0 0.14 23.83 0 -18.15 49.75zm68.79 -38.82l9.97 -27.97 23.78 0c-2.93,8.57 -5.18,15.22 -6.78,19.97 -1.61,4.75 -2.79,8.32 -3.54,10.64 -0.75,2.36 -1.21,3.86 -1.39,4.47 -0.18,0.64 -0.25,1.1 -0.25,1.35 -0.39,1.68 -0.61,3 -0.61,4.04 0,2.93 0.72,5.21 2.14,6.86 1.43,1.64 3.33,2.46 5.65,2.46l6.18 0c2.03,0 3.89,-0.43 5.64,-1.29 1.71,-0.82 3.25,-1.89 4.57,-3.14 1.32,-1.25 2.5,-2.61 3.54,-4.03 1,-1.43 1.78,-2.72 2.39,-3.9l13.61 -37.43 23.93 0 -11.32 31.15c-2.11,5.78 -4.25,10.89 -6.43,15.28 -2.18,4.4 -4.68,8.11 -7.43,11.15 -2.79,3.03 -5.97,5.32 -9.57,6.85 -3.61,1.58 -7.97,2.36 -13,2.36l-14.76 0c-5.89,0 -10.78,-0.32 -14.67,-1 -3.9,-0.68 -7.04,-1.75 -9.36,-3.21 -2.36,-1.47 -4.04,-3.4 -5.04,-5.75 -1.03,-2.33 -1.53,-5.18 -1.53,-8.58 0,-0.89 0.07,-1.85 0.21,-2.89 0.11,-1 0.25,-2.07 0.43,-3.25 0.39,-2.18 0.93,-4.39 1.57,-6.57 0.61,-2.18 1.32,-4.72 2.07,-7.57zm71.58 38.82l24.18 0 8.32 -22.93 1.39 -1 25.93 23.93 26.97 0 -24.68 -25.32c3.35,-0.25 6.96,-0.75 10.78,-1.47 3.83,-0.71 7.29,-1.89 10.47,-3.53 3.14,-1.61 5.75,-3.82 7.86,-6.61 2.1,-2.75 3.14,-6.29 3.14,-10.57 0,-1.93 -0.18,-4.04 -0.57,-6.32 -0.39,-2.25 -1.07,-4.36 -2.07,-6.29 -1,-1.93 -2.4,-3.54 -4.22,-4.79 -1.82,-1.25 -4.14,-1.89 -7,-1.89l-56.18 0 -24.32 66.79zm69.93 -46.11c0,0.82 -0.29,1.82 -0.82,2.93 -0.54,1.14 -1.47,1.71 -2.72,1.71l-20.18 0 -11.07 11.22 7.18 -19.64 25.32 0c1.04,0 1.68,0.21 1.93,0.67 0.25,0.47 0.36,1.04 0.36,1.72l0 1.39z"/>
   <path fill="url(#id10)" d="M232.04 535.18c-96.59,36.7 -161.89,73.39 -160.67,73.04l0 0c282.83,-81.55 474.57,8.68 474.57,8.68 -36.44,-115.39 118,-148.36 118,-148.36l0 0c-27.92,-4.43 -56.46,-6.41 -85.21,-6.41l0 0c-123.42,0.01 -250.56,36.53 -346.69,73.05l0 0z"/>
   <path fill="none" fill-rule="nonzero" stroke="white" stroke-width="1.78" stroke-miterlimit="10" d="M71.37 608.22c-2.7,0.78 324.48,-182.19 592.57,-139.68 0,0 -154.44,32.97 -118,148.36 0,0 -191.74,-90.23 -474.57,-8.68z"/>
   <polygon fill="white" fill-rule="nonzero" points="145.71,204.97 149.19,196.97 96.39,173.96 92.9,181.96 "/>
   <path fill="white" fill-rule="nonzero" d="M126.73 121.69l-4.37 6.76 17.84 11.53c7.7,4.98 14.03,8.79 20.97,12.48l-0.04 0.23c-6.48,-1.22 -13.81,-2.11 -21.08,-2.49l-30.56 -1.83 -5.15 7.97 48.38 31.27 4.38 -6.78 -18.09 -11.69c-8.48,-5.48 -14.82,-9.39 -21.2,-12.96l0.1 -0.32c6.87,1.32 14.43,2.09 21.57,2.56l30.85 1.92 4.78 -7.38 -48.38 -31.27z"/>
   <polygon fill="white" fill-rule="nonzero" points="164.59,81.16 136.61,109.5 141.91,114.73 152.81,103.69 188.51,138.92 194.64,132.71 158.95,97.48 169.89,86.39 "/>
   <polygon fill="white" fill-rule="nonzero" points="230.57,95.16 212.07,108.25 201.02,92.65 217.5,80.98 213.32,75.08 196.84,86.74 187.22,73.15 204.68,60.8 200.46,54.84 175.88,72.24 209.16,119.26 234.79,101.12 "/>
   <path fill="white" fill-rule="nonzero" d="M251.37 62.58c4.37,-4.4 6.36,-10.89 3.28,-17.6 -1.95,-4.22 -5.05,-7.19 -8.91,-8.33 -4.62,-1.41 -9.98,-0.45 -16.83,2.7 -4.71,2.17 -9.14,4.79 -12.21,6.96l23.76 51.62 7.87 -3.62 -10.2 -22.16 4.79 -2.2c5.55,-2.55 9.3,-1.04 13.94,5.26 4.26,5.84 7.6,9.85 9.06,11.01l8.2 -3.77c-1.94,-1.51 -5.73,-6.32 -10.45,-12.44 -3.79,-4.97 -7.68,-7.65 -12.23,-7.29l-0.07 -0.14zm-15.97 3.62l-8.28 -17.99c0.82,-0.71 2.65,-1.79 5.33,-3.02 5.66,-2.6 11.52,-2.48 14.63,4.29 2.58,5.6 0.22,11.24 -6.35,14.27l-5.33 2.45z"/>
   <path fill="white" fill-rule="nonzero" d="M306.86 15.71l-7.86 1.72 4.56 20.74c1.97,8.97 3.79,16.13 6.12,23.64l-0.19 0.12c-3.75,-5.42 -8.33,-11.21 -13.23,-16.6l-20.42 -22.8 -9.27 2.04 12.37 56.25 7.88 -1.73 -4.63 -21.03c-2.17,-9.86 -3.91,-17.1 -5.94,-24.13l0.3 -0.15c3.95,5.77 8.78,11.64 13.52,17l20.57 23.07 8.59 -1.89 -12.37 -56.25z"/>
   <path fill="white" fill-rule="nonzero" d="M353.16 13.85l-10.69 -0.1 -18.18 57.42 8.96 0.09 5.14 -16.9 17.6 0.18 5.05 16.99 9.17 0.09 -17.05 -57.77zm-13.36 33.83l4.75 -15.09c1,-3.53 1.96,-7.73 2.82,-11.26l0.15 0c0.78,3.55 1.72,7.61 2.75,11.4l4.36 15.09 -14.83 -0.14z"/>
   <polygon fill="white" fill-rule="nonzero" points="418.27,22.91 379.2,15.18 377.76,22.49 392.98,25.5 383.25,74.7 391.81,76.39 401.54,27.19 416.82,30.21 "/>
   <polygon fill="white" fill-rule="nonzero" points="411.4,81.64 419.66,84.46 438.27,29.95 430.01,27.13 "/>
   <path fill="white" fill-rule="nonzero" d="M476.19 45.97c-13,-7.01 -27.51,-1.33 -36.12,14.63 -8.26,15.31 -5.63,30.26 7.27,37.22 12.34,6.66 26.64,2.83 36.15,-14.81 7.86,-14.58 6.15,-29.78 -7.3,-37.04zm-3.66 6.15c9.08,4.9 7.96,17.12 2.74,26.8 -5.82,10.79 -15.38,17.54 -24.25,12.76 -8.75,-4.72 -8.31,-16.63 -2.77,-26.91 5.36,-9.93 14.93,-17.69 24.28,-12.65z"/>
   <path fill="white" fill-rule="nonzero" d="M543.39 97.36l-5.99 -5.37 -14.18 15.8c-6.13,6.84 -10.89,12.49 -15.62,18.76l-0.22 -0.08c2.22,-6.21 4.25,-13.3 5.77,-20.43l6.59 -29.88 -7.07 -6.35 -38.46 42.89 6.01 5.38 14.38 -16.03c6.74,-7.51 11.6,-13.16 16.12,-18.91l0.3 0.15c-2.38,6.59 -4.32,13.93 -5.91,20.91l-6.73 30.17 6.54 5.87 38.47 -42.88z"/>
   <path fill="white" fill-rule="nonzero" d="M571.92 133.76l-6.17 -8.73 -57.21 18.88 5.18 7.32 16.71 -5.73 10.17 14.37 -10.83 14.04 5.3 7.49 36.85 -47.64zm-35.25 8.96l15.02 -4.97c3.45,-1.27 7.41,-2.94 10.78,-4.31l0.09 0.12c-2.43,2.71 -5.17,5.85 -7.64,8.9l-9.68 12.37 -8.57 -12.11z"/>
   <polygon fill="white" fill-rule="nonzero" points="556.48,211.85 547.35,191.59 593.13,170.95 589.54,163 537.03,186.67 549.75,214.88 "/>
  </g>
 </g>
</svg>
