<?xml version="1.0" encoding="UTF-8"?>
<!DOCTYPE svg PUBLIC "-//W3C//DTD SVG 1.1//EN" "http://www.w3.org/Graphics/SVG/1.1/DTD/svg11.dtd">
<!-- Creator: CorelDRAW 2018 (64 Bit Versão de avaliação) -->
<svg xmlns="http://www.w3.org/2000/svg" xml:space="preserve" width="1000px" height="422px" version="1.1" shape-rendering="geometricPrecision" text-rendering="geometricPrecision" image-rendering="optimizeQuality" fill-rule="evenodd" clip-rule="evenodd"
viewBox="0 0 470.03 198.37"
 xmlns:xlink="http://www.w3.org/1999/xlink">
 <defs>
     <linearGradient id="id0" gradientUnits="userSpaceOnUse" x1="83.8" y1="82.66" x2="102.19" y2="60.85">
      <stop offset="0" stop-opacity="1" stop-color="#B0AFB5"/>
      <stop offset="0.0392157" stop-opacity="1" stop-color="#B0AFB5"/>
      <stop offset="0.301961" stop-opacity="1" stop-color="white"/>
      <stop offset="0.631373" stop-opacity="1" stop-color="#98959A"/>
      <stop offset="1" stop-opacity="1" stop-color="#77767B"/>
     </linearGradient>
     <linearGradient id="id1" gradientUnits="userSpaceOnUse" x1="92.89" y1="57.24" x2="112.33" y2="37.81">
      <stop offset="0" stop-opacity="1" stop-color="#B0AFB5"/>
      <stop offset="0.0392157" stop-opacity="1" stop-color="#B0AFB5"/>
      <stop offset="0.301961" stop-opacity="1" stop-color="white"/>
      <stop offset="0.631373" stop-opacity="1" stop-color="#98959A"/>
      <stop offset="1" stop-opacity="1" stop-color="#77767B"/>
     </linearGradient>
     <linearGradient id="id2" gradientUnits="userSpaceOnUse" x1="114.3" y1="80.93" x2="144.73" y2="51.82">
      <stop offset="0" stop-opacity="1" stop-color="#B0AFB5"/>
      <stop offset="0.0392157" stop-opacity="1" stop-color="#B0AFB5"/>
      <stop offset="0.301961" stop-opacity="1" stop-color="white"/>
      <stop offset="0.631373" stop-opacity="1" stop-color="#98959A"/>
      <stop offset="1" stop-opacity="1" stop-color="#77767B"/>
     </linearGradient>
     <linearGradient id="id3" gradientUnits="userSpaceOnUse" x1="130.86" y1="89.41" x2="146.34" y2="72.97">
      <stop offset="0" stop-opacity="1" stop-color="#B0AFB5"/>
      <stop offset="0.0392157" stop-opacity="1" stop-color="#B0AFB5"/>
      <stop offset="0.301961" stop-opacity="1" stop-color="white"/>
      <stop offset="0.631373" stop-opacity="1" stop-color="#98959A"/>
      <stop offset="1" stop-opacity="1" stop-color="#77767B"/>
     </linearGradient>
     <linearGradient id="id4" gradientUnits="userSpaceOnUse" x1="151.53" y1="112.78" x2="151.93" y2="112.37">
      <stop offset="0" stop-opacity="1" stop-color="#B0AFB5"/>
      <stop offset="0.0392157" stop-opacity="1" stop-color="#B0AFB5"/>
      <stop offset="0.301961" stop-opacity="1" stop-color="white"/>
      <stop offset="0.631373" stop-opacity="1" stop-color="#98959A"/>
      <stop offset="1" stop-opacity="1" stop-color="#77767B"/>
     </linearGradient>
     <linearGradient id="id5" gradientUnits="userSpaceOnUse" x1="109.96" y1="116.97" x2="139.55" y2="86.33">
      <stop offset="0" stop-opacity="1" stop-color="#B0AFB5"/>
      <stop offset="0.0392157" stop-opacity="1" stop-color="#B0AFB5"/>
      <stop offset="0.301961" stop-opacity="1" stop-color="white"/>
      <stop offset="0.631373" stop-opacity="1" stop-color="#98959A"/>
      <stop offset="1" stop-opacity="1" stop-color="#77767B"/>
     </linearGradient>
     <linearGradient id="id6" gradientUnits="userSpaceOnUse" x1="78.78" y1="130.63" x2="117.06" y2="91.49">
      <stop offset="0" stop-opacity="1" stop-color="#B0AFB5"/>
      <stop offset="0.0392157" stop-opacity="1" stop-color="#B0AFB5"/>
      <stop offset="0.301961" stop-opacity="1" stop-color="white"/>
      <stop offset="0.631373" stop-opacity="1" stop-color="#98959A"/>
      <stop offset="1" stop-opacity="1" stop-color="#77767B"/>
     </linearGradient>
     <linearGradient id="id7" gradientUnits="userSpaceOnUse" x1="70.03" y1="121.73" x2="97.04" y2="99.28">
      <stop offset="0" stop-opacity="1" stop-color="#B0AFB5"/>
      <stop offset="0.0392157" stop-opacity="1" stop-color="#B0AFB5"/>
      <stop offset="0.301961" stop-opacity="1" stop-color="white"/>
      <stop offset="0.631373" stop-opacity="1" stop-color="#98959A"/>
      <stop offset="1" stop-opacity="1" stop-color="#77767B"/>
     </linearGradient>
     <linearGradient id="id8" gradientUnits="userSpaceOnUse" x1="72.11" y1="103.85" x2="97.53" y2="81.64">
      <stop offset="0" stop-opacity="1" stop-color="#B0AFB5"/>
      <stop offset="0.0392157" stop-opacity="1" stop-color="#B0AFB5"/>
      <stop offset="0.301961" stop-opacity="1" stop-color="white"/>
      <stop offset="0.631373" stop-opacity="1" stop-color="#98959A"/>
      <stop offset="1" stop-opacity="1" stop-color="#77767B"/>
     </linearGradient>
     <linearGradient id="id9" gradientUnits="userSpaceOnUse" x1="10.82" y1="163.15" x2="214.9" y2="163.15">
      <stop offset="0" stop-opacity="1" stop-color="white"/>
      <stop offset="0.168627" stop-opacity="1" stop-color="white"/>
      <stop offset="0.588235" stop-opacity="1" stop-color="#98959A"/>
      <stop offset="1" stop-opacity="1" stop-color="#4D4B4D"/>
     </linearGradient>
     <linearGradient id="id10" gradientUnits="userSpaceOnUse" x1="82.51" y1="129.39" x2="150.74" y2="197.75">
      <stop offset="0" stop-opacity="1" stop-color="white"/>
      <stop offset="0.168627" stop-opacity="1" stop-color="white"/>
      <stop offset="0.458824" stop-opacity="1" stop-color="#98959A"/>
      <stop offset="1" stop-opacity="1" stop-color="#1E120D"/>
     </linearGradient>
 </defs>
 <g id="Camada_x0020_1">
  <metadata id="CorelCorpID_0Corel-Layer"/>
  <g id="_2225809304896">
   <path fill="#ED4021" fill-rule="nonzero" d="M241.73 102.92l0 -0.42c0,-0.38 -0.06,-0.75 -0.19,-1.15 -0.14,-0.4 -0.4,-0.6 -0.78,-0.6l-13.98 0c-1.41,0 -2.66,-0.33 -3.79,-1.01 -1.13,-0.67 -2.09,-1.55 -2.9,-2.6 -0.81,-1.05 -1.45,-2.2 -1.87,-3.47 -0.41,-1.25 -0.63,-2.48 -0.63,-3.69 0,-1.13 0.34,-2.4 0.99,-3.83 0.66,-1.41 1.49,-2.76 2.52,-4.04 1.01,-1.29 2.18,-2.37 3.49,-3.24 1.31,-0.85 2.62,-1.29 3.93,-1.29l35.69 0c-1.07,1.59 -2.3,3.18 -3.67,4.76 -1.37,1.59 -2.9,3.18 -4.58,4.76l-23.11 0c-0.5,0 -0.94,0.36 -1.31,1.06 -0.38,0.69 -0.58,1.27 -0.58,1.68l0 0.34c0,0.06 0.1,0.16 0.28,0.32 0.18,0.16 0.32,0.29 0.42,0.39 0.19,0.18 0.47,0.36 0.83,0.52 0.34,0.16 0.53,0.24 0.57,0.24l13.3 0c1.48,0 2.77,0.35 3.84,1.09 1.08,0.73 1.95,1.65 2.64,2.74 0.68,1.09 1.17,2.28 1.51,3.53 0.32,1.25 0.48,2.42 0.48,3.49l0 0.42c0,1.21 -0.28,2.52 -0.84,3.88 -0.55,1.37 -1.28,2.64 -2.2,3.81 -0.91,1.17 -1.96,2.15 -3.15,2.92 -1.19,0.77 -2.42,1.15 -3.67,1.15l-35.69 0c0.22,-0.46 0.69,-1.21 1.43,-2.24 0.73,-1.03 1.5,-2.06 2.32,-3.12 0.81,-1.05 1.56,-1.98 2.26,-2.79 0.69,-0.82 1.11,-1.23 1.25,-1.23l23.81 0c0.69,0 1.11,-0.22 1.23,-0.64 0.09,-0.41 0.15,-0.85 0.15,-1.33l0 -0.41zm67.54 11.76l13.51 -37.1 -16.93 0 -17.16 18.63 -3.57 -18.63 -16.92 0 -13.51 37.1 13.43 0 7.56 -20.85 3.85 20.85 4.84 0 19.02 -20.85 -7.56 20.85 13.44 0zm16.8 0l13.43 0 10.08 -27.63 8.27 0c0.38,0 0.97,-0.38 1.79,-1.14 0.81,-0.73 1.64,-1.62 2.52,-2.65 0.85,-1.04 1.66,-2.07 2.44,-3.12 0.77,-1.05 1.31,-1.9 1.64,-2.56l-35.07 0c-0.66,0.42 -1.43,1.11 -2.34,2.07 -0.92,0.97 -1.81,1.96 -2.66,2.97 -0.86,1.03 -1.61,1.97 -2.22,2.8 -0.64,0.85 -0.98,1.37 -1.04,1.55l0 0.08 13.24 0 -10.08 27.63zm38.21 -21.56l5.53 -15.54 13.22 0c-1.63,4.76 -2.88,8.45 -3.77,11.09 -0.9,2.64 -1.55,4.62 -1.97,5.91 -0.41,1.31 -0.67,2.15 -0.77,2.48 -0.1,0.36 -0.14,0.62 -0.14,0.76 -0.22,0.93 -0.34,1.66 -0.34,2.24 0,1.63 0.4,2.9 1.19,3.81 0.8,0.91 1.85,1.37 3.14,1.37l3.43 0c1.13,0 2.16,-0.24 3.13,-0.72 0.96,-0.45 1.81,-1.05 2.54,-1.74 0.74,-0.7 1.39,-1.45 1.97,-2.24 0.55,-0.8 0.99,-1.51 1.33,-2.17l7.56 -20.79 13.29 0 -6.29 17.3c-1.17,3.22 -2.36,6.05 -3.57,8.49 -1.21,2.44 -2.6,4.51 -4.13,6.19 -1.55,1.69 -3.31,2.96 -5.32,3.81 -2,0.87 -4.42,1.31 -7.22,1.31l-8.19 0c-3.27,0 -5.99,-0.18 -8.15,-0.55 -2.17,-0.38 -3.91,-0.98 -5.2,-1.79 -1.31,-0.81 -2.24,-1.88 -2.8,-3.19 -0.57,-1.29 -0.85,-2.88 -0.85,-4.77 0,-0.49 0.04,-1.03 0.12,-1.6 0.06,-0.56 0.14,-1.15 0.24,-1.81 0.21,-1.21 0.51,-2.44 0.87,-3.65 0.34,-1.21 0.73,-2.62 1.15,-4.2zm39.76 21.56l13.43 0 4.62 -12.74 0.77 -0.55 14.41 13.29 14.97 0 -13.7 -14.07c1.86,-0.13 3.86,-0.41 5.99,-0.81 2.12,-0.4 4.04,-1.05 5.81,-1.96 1.75,-0.89 3.19,-2.12 4.36,-3.67 1.18,-1.53 1.75,-3.49 1.75,-5.87 0,-1.08 -0.1,-2.25 -0.32,-3.52 -0.22,-1.25 -0.59,-2.42 -1.15,-3.49 -0.55,-1.07 -1.33,-1.96 -2.34,-2.66 -1.01,-0.69 -2.3,-1.05 -3.89,-1.05l-31.2 0 -13.51 37.1zm38.84 -25.61c0,0.46 -0.16,1.01 -0.46,1.63 -0.29,0.63 -0.81,0.95 -1.5,0.95l-11.21 0 -6.15 6.23 3.99 -10.91 14.06 0c0.58,0 0.93,0.11 1.07,0.37 0.14,0.26 0.2,0.58 0.2,0.96l0 0.77z"/>
   <rect fill="none" width="470.03" height="198.37"/>
   <g>
    <path fill="white" fill-rule="nonzero" d="M167.23 90.83c0,32.46 -26.31,58.77 -58.77,58.77 -32.45,0 -58.76,-26.31 -58.76,-58.77 0,-32.45 26.31,-58.76 58.76,-58.76 32.46,0 58.77,26.31 58.77,58.76z"/>
    <path fill="#E4472D" fill-rule="nonzero" d="M108.76 148.12c-31.5,0 -57.03,-25.54 -57.03,-57.03 0,-31.5 25.53,-57.04 57.03,-57.04 31.49,0 57.03,25.54 57.03,57.04 0,31.49 -25.54,57.03 -57.03,57.03zm-1.26 -138.51c-45.28,0 -81.98,36.7 -81.98,81.98 0,45.27 36.7,81.98 81.98,81.98 45.28,0 81.98,-36.71 81.98,-81.98 0,-45.28 -36.7,-81.98 -81.98,-81.98z"/>
    <path fill="none" fill-rule="nonzero" stroke="#1E120D" stroke-width="1.01" stroke-miterlimit="10" d="M108.76 148.12c-31.5,0 -57.03,-25.54 -57.03,-57.03 0,-31.5 25.53,-57.04 57.03,-57.04 31.49,0 57.03,25.54 57.03,57.04 0,31.49 -25.54,57.03 -57.03,57.03zm-1.26 -138.51c-45.28,0 -81.98,36.7 -81.98,81.98 0,45.27 36.7,81.98 81.98,81.98 45.28,0 81.98,-36.71 81.98,-81.98 0,-45.28 -36.7,-81.98 -81.98,-81.98z"/>
    <path fill="url(#id0)" d="M79.87 64c-9.64,14.82 2.22,20.75 2.22,20.75 -8.52,-15.57 25.58,-11.86 25.58,-11.86l0 0c-2.6,-2.96 -14.09,-5.19 -14.09,-5.19l0 0c2.23,-3.7 0.74,-13.71 0.74,-13.71l0 0c-9.54,2.82 -14.45,10.01 -14.45,10.01l0 0z"/>
    <path fill="none" fill-rule="nonzero" stroke="#89878C" stroke-width="0.25" stroke-miterlimit="10" d="M82.09 84.75c-8.52,-15.57 25.57,-11.86 25.57,-11.86 -2.59,-2.96 -14.08,-5.19 -14.08,-5.19 2.23,-3.7 0.74,-13.71 0.74,-13.71 -9.54,2.82 -14.45,10.01 -14.45,10.01 -9.64,14.82 2.22,20.75 2.22,20.75z"/>
    <path fill="url(#id1)" d="M88.56 52.91c7.11,-3.47 10.77,-3.47 10.77,-3.47l0 0c-2.93,4.2 -2.01,10.59 -2.01,10.59l0 0c8.39,-14.97 19.34,-17.89 19.34,-17.89l0 0c-1.39,-0.25 -2.77,-0.37 -4.11,-0.37l0 0c-13.31,0 -23.99,11.14 -23.99,11.14l0 0z"/>
    <path fill="none" fill-rule="nonzero" stroke="#89878C" stroke-width="0.25" stroke-miterlimit="10" d="M97.32 60.03c8.39,-14.97 19.34,-17.89 19.34,-17.89 -15.14,-2.74 -28.1,10.77 -28.1,10.77 7.11,-3.47 10.77,-3.47 10.77,-3.47 -2.93,4.2 -2.01,10.59 -2.01,10.59z"/>
    <path fill="url(#id2)" d="M97.86 64.77l6.21 0.19c1.56,-2.44 3.24,-4.49 5,-6.19l0 0c0.45,1.65 1.55,3.04 3.02,3.86l0 0c-1.43,-0.06 -2.36,-0.23 -2.36,-0.23l0 0 -2.56 3.83c10.96,4.2 23,-4.01 23,-4.01l0 0c11.87,-3.84 26.83,12.77 26.83,12.77 -8.03,-25.55 -31.76,-18.07 -31.76,-18.07l0 0c-1.45,2.21 -3.39,3.58 -5.4,4.43l0 0c1.02,-1.12 1.65,-2.61 1.65,-4.25l0 0c0,-1.84 -0.79,-3.49 -2.05,-4.65l0 0c15,-4.83 30.81,5.02 30.81,5.02l0 0c-9.13,-15.15 -26.65,-13.69 -26.65,-13.69l0 0c-0.35,-0.02 -0.69,-0.04 -1.04,-0.04l0 0c-13.92,0 -24.7,21.03 -24.7,21.03zm20.32 -7.67c0,-1.56 -1.18,-2.84 -2.69,-3l0 0c0.85,-0.44 1.71,-0.82 2.58,-1.16l0 0c1.31,0.92 2.17,2.44 2.17,4.16l0 0c0,2.8 -2.28,5.08 -5.08,5.08l0 0c-2.57,0 -4.69,-1.92 -5.02,-4.4l0 0c0.72,-0.63 1.46,-1.22 2.2,-1.75l0 0c-0.12,0.34 -0.2,0.69 -0.2,1.07l0 0c0,1.67 1.35,3.02 3.02,3.02l0 0c1.67,0 3.02,-1.35 3.02,-3.02l0 0z"/>
    <path fill="none" fill-rule="nonzero" stroke="#89878C" stroke-width="0.25" stroke-miterlimit="10" d="M120.24 57.1c0,2.8 -2.28,5.08 -5.08,5.08 -2.57,0 -4.69,-1.92 -5.02,-4.4 0.72,-0.64 1.46,-1.22 2.2,-1.75 -0.12,0.34 -0.2,0.69 -0.2,1.07 0,1.67 1.36,3.02 3.02,3.02 1.67,0 3.02,-1.35 3.02,-3.02 0,-1.56 -1.18,-2.84 -2.69,-3 0.85,-0.44 1.71,-0.82 2.57,-1.16 1.32,0.92 2.18,2.44 2.18,4.16zm-22.37 7.67l6.2 0.18c1.56,-2.43 3.24,-4.48 5,-6.18 0.45,1.65 1.55,3.04 3.02,3.86 -1.43,-0.06 -2.36,-0.23 -2.36,-0.23l-2.56 3.83c10.96,4.2 23,-4.01 23,-4.01 11.87,-3.84 26.83,12.77 26.83,12.77 -8.03,-25.55 -31.76,-18.07 -31.76,-18.07 -1.45,2.21 -3.39,3.58 -5.4,4.43 1.02,-1.12 1.65,-2.61 1.65,-4.25 0,-1.84 -0.79,-3.49 -2.05,-4.65 15,-4.83 30.81,5.02 30.81,5.02 -9.13,-15.15 -26.65,-13.69 -26.65,-13.69 -14.42,-1.09 -25.73,20.99 -25.73,20.99z"/>
    <path fill="url(#id3)" d="M129.26 66.96c-2.92,1.83 -16.79,2.92 -16.79,2.92l0 0c35.59,6.03 45.81,32.31 45.81,32.31l0 0c3.1,-31.21 -23.18,-35.77 -23.18,-35.77l0 0c-1.37,-0.69 -2.44,-0.93 -3.26,-0.93 -2.03,0 -2.58,1.47 -2.58,1.47l0 0z"/>
    <path fill="none" fill-rule="nonzero" stroke="#89878C" stroke-width="0.25" stroke-miterlimit="10" d="M135.1 66.42c-4.75,-2.38 -5.84,0.54 -5.84,0.54 -2.92,1.83 -16.79,2.92 -16.79,2.92 35.59,6.03 45.81,32.31 45.81,32.31 3.1,-31.21 -23.18,-35.77 -23.18,-35.77z"/>
    <path fill="url(#id4)" d="M151.71 112.96l0 0c0.02,-0.26 0.02,-0.51 0.04,-0.77 -0.01,0.47 -0.04,0.76 -0.04,0.77z"/>
    <path fill="none" fill-rule="nonzero" stroke="#89878C" stroke-width="0.25" stroke-miterlimit="10" d="M151.75 112.19c-0.02,0.26 -0.02,0.51 -0.04,0.77 0,0 0.03,-0.29 0.04,-0.77z"/>
    <path fill="url(#id5)" d="M124.7 100.55c3.1,-3.47 3.46,-6.21 3.46,-6.21l0 0c13.69,24.64 -0.36,40.52 -0.36,40.52l0 0c14.05,-7.48 14.78,-23.18 14.78,-23.18l0 0c3.11,8.4 0.92,14.6 0.92,14.6l0 0c8.39,-11.86 3.83,-22.81 3.83,-22.81l0 0c4.03,2.44 4.43,6.93 4.42,8.72l0 0c1.47,-32.2 -40.56,-39.39 -40.56,-39.39 14.97,12.6 13.51,27.75 13.51,27.75l0 0z"/>
    <path fill="none" fill-rule="nonzero" stroke="#89878C" stroke-width="0.25" stroke-miterlimit="10" d="M111.19 72.8c14.97,12.6 13.51,27.75 13.51,27.75 3.1,-3.47 3.46,-6.21 3.46,-6.21 13.69,24.64 -0.36,40.52 -0.36,40.52 14.05,-7.48 14.78,-23.18 14.78,-23.18 3.11,8.4 0.92,14.6 0.92,14.6 8.39,-11.86 3.83,-22.81 3.83,-22.81 4.03,2.44 4.43,6.93 4.42,8.72 1.47,-32.2 -40.56,-39.39 -40.56,-39.39z"/>
    <path fill="url(#id6)" d="M104.98 107.85c6.03,-1.64 9.31,-8.03 9.31,-8.03l0 0c1.1,34.13 -42.89,28.11 -42.89,28.11l0 0c22.63,16.42 46.18,0.73 46.18,0.73l0 0c-3.84,7.48 -11.68,9.31 -11.68,9.31l0 0c30.3,0.54 21.9,-35.78 21.9,-35.78l0 0c-2.74,4.93 -7.85,5.84 -7.85,5.84l0 0c4.02,-25.55 -18.62,-32.12 -18.62,-32.12l0 0c12.23,13.69 3.65,31.94 3.65,31.94l0 0z"/>
    <path fill="none" fill-rule="nonzero" stroke="#89878C" stroke-width="0.25" stroke-miterlimit="10" d="M127.8 102.19c-2.74,4.93 -7.85,5.84 -7.85,5.84 4.02,-25.55 -18.62,-32.12 -18.62,-32.12 12.23,13.69 3.65,31.94 3.65,31.94 6.03,-1.64 9.31,-8.03 9.31,-8.03 1.1,34.13 -42.89,28.11 -42.89,28.11 22.63,16.42 46.18,0.73 46.18,0.73 -3.84,7.48 -11.68,9.31 -11.68,9.31 30.3,0.54 21.9,-35.78 21.9,-35.78z"/>
    <path fill="url(#id7)" d="M97.32 116.79c0,0 2.19,-2.01 3.65,-7.12 0,0 -19.17,13.33 -43.81,0.73 0,0 6.57,12.05 23,12.42l0 0c0,0 21.36,2.92 29.39,-13.15 0,0 -6.03,7.85 -12.23,7.12l0 0z"/>
    <path fill="none" fill-rule="nonzero" stroke="#89878C" stroke-width="0.25" stroke-miterlimit="10" d="M109.55 109.67c0,0 -6.03,7.85 -12.23,7.12 0,0 2.19,-2.01 3.65,-7.12 0,0 -19.17,13.33 -43.81,0.73 0,0 6.57,12.05 23,12.42 0,0 21.36,2.92 29.39,-13.15z"/>
    <path fill="url(#id8)" d="M64.28 102.19c17.89,16.24 33.58,1.28 33.58,1.28l0 0c6.94,-11.5 -1.09,-25.37 -1.09,-25.37l0 0c-2.37,35.77 -32.49,24.09 -32.49,24.09z"/>
    <path fill="none" fill-rule="nonzero" stroke="#89878C" stroke-width="0.25" stroke-miterlimit="10" d="M97.86 103.47c6.94,-11.5 -1.09,-25.37 -1.09,-25.37 -2.37,35.77 -32.49,24.09 -32.49,24.09 17.89,16.24 33.58,1.28 33.58,1.28z"/>
    <polygon fill="#1E120D" fill-rule="nonzero" points="51.69,67.6 52.68,65.33 37.74,58.82 36.75,61.08 "/>
    <polygon fill="none" fill-rule="nonzero" stroke="#1E120D" stroke-width="0.5" stroke-miterlimit="10" points="51.69,67.59 52.68,65.33 37.74,58.82 36.75,61.08 "/>
    <path fill="#1E120D" fill-rule="nonzero" d="M46.32 44.05l-1.24 1.91 5.05 3.26c2.18,1.41 3.97,2.49 5.93,3.53l-0.01 0.06c-1.83,-0.34 -3.91,-0.59 -5.96,-0.7l-8.65 -0.52 -1.46 2.26 13.69 8.84 1.24 -1.91 -5.12 -3.31c-2.4,-1.55 -4.19,-2.66 -6,-3.67l0.03 -0.09c1.95,0.38 4.09,0.59 6.11,0.73l8.73 0.54 1.35 -2.09 -13.69 -8.84z"/>
    <path fill="none" fill-rule="nonzero" stroke="#1E120D" stroke-width="0.5" stroke-miterlimit="10" d="M46.32 44.04l-1.24 1.92 5.05 3.26c2.18,1.41 3.97,2.49 5.93,3.53l-0.01 0.06c-1.83,-0.34 -3.91,-0.59 -5.96,-0.7l-8.65 -0.52 -1.46 2.26 13.69 8.84 1.24 -1.91 -5.12 -3.31c-2.4,-1.55 -4.19,-2.66 -6,-3.67l0.03 -0.08c1.95,0.36 4.09,0.58 6.11,0.72l8.72 0.54 1.36 -2.09 -13.69 -8.85z"/>
    <polygon fill="#1E120D" fill-rule="nonzero" points="57.03,32.58 49.12,40.6 50.61,42.08 53.7,38.95 63.8,48.92 65.53,47.16 55.43,37.19 58.53,34.06 "/>
    <polygon fill="none" fill-rule="nonzero" stroke="#1E120D" stroke-width="0.5" stroke-miterlimit="10" points="57.03,32.58 49.12,40.6 50.62,42.08 53.7,38.95 63.8,48.92 65.53,47.16 55.44,37.2 58.53,34.06 "/>
    <polygon fill="#1E120D" fill-rule="nonzero" points="75.7,36.54 70.46,40.24 67.34,35.83 72,32.53 70.82,30.86 66.15,34.16 63.43,30.31 68.37,26.82 67.18,25.13 60.22,30.05 69.64,43.36 76.89,38.22 "/>
    <polygon fill="none" fill-rule="nonzero" stroke="#1E120D" stroke-width="0.5" stroke-miterlimit="10" points="75.7,36.54 70.46,40.24 67.34,35.82 72,32.53 70.82,30.86 66.16,34.16 63.44,30.31 68.37,26.82 67.18,25.13 60.23,30.05 69.64,43.35 76.89,38.22 "/>
    <path fill="#1E120D" fill-rule="nonzero" d="M81.58 27.32c1.24,-1.24 1.8,-3.08 0.93,-4.98 -0.55,-1.19 -1.43,-2.03 -2.52,-2.35 -1.31,-0.41 -2.83,-0.13 -4.76,0.76 -1.33,0.61 -2.59,1.35 -3.46,1.97l6.73 14.6 2.22 -1.02 -2.88 -6.27 1.35 -0.62c1.57,-0.73 2.63,-0.3 3.94,1.48 1.21,1.66 2.16,2.79 2.57,3.12l2.32 -1.07c-0.55,-0.42 -1.62,-1.79 -2.96,-3.52 -1.07,-1.4 -2.17,-2.16 -3.46,-2.06l-0.02 -0.04zm-4.52 1.02l-2.34 -5.09c0.23,-0.2 0.75,-0.5 1.51,-0.85 1.6,-0.74 3.26,-0.7 4.14,1.21 0.73,1.59 0.06,3.18 -1.8,4.04l-1.51 0.69z"/>
    <path fill="none" fill-rule="nonzero" stroke="#1E120D" stroke-width="0.5" stroke-miterlimit="10" d="M81.58 27.32c1.24,-1.25 1.8,-3.08 0.93,-4.97 -0.55,-1.2 -1.43,-2.04 -2.52,-2.36 -1.31,-0.41 -2.82,-0.13 -4.76,0.76 -1.34,0.61 -2.59,1.35 -3.46,1.96l6.73 14.61 2.22 -1.02 -2.88 -6.27 1.35 -0.62c1.57,-0.73 2.63,-0.3 3.95,1.49 1.2,1.65 2.15,2.78 2.56,3.11l2.32 -1.07c-0.55,-0.43 -1.62,-1.79 -2.96,-3.52 -1.07,-1.4 -2.17,-2.16 -3.46,-2.06l-0.02 -0.04zm-4.52 1.03l-2.34 -5.09c0.24,-0.21 0.75,-0.51 1.51,-0.86 1.6,-0.74 3.26,-0.71 4.14,1.21 0.73,1.59 0.06,3.19 -1.8,4.04l-1.51 0.7z"/>
    <path fill="#1E120D" fill-rule="nonzero" d="M97.28 14.06l-2.22 0.49 1.29 5.87c0.55,2.53 1.07,4.56 1.73,6.68l-0.06 0.04c-1.06,-1.54 -2.35,-3.18 -3.74,-4.7l-5.77 -6.45 -2.63 0.58 3.5 15.91 2.23 -0.49 -1.31 -5.95c-0.61,-2.79 -1.11,-4.84 -1.68,-6.83l0.08 -0.04c1.12,1.64 2.49,3.29 3.83,4.81l5.82 6.53 2.43 -0.53 -3.5 -15.92z"/>
    <path fill="none" fill-rule="nonzero" stroke="#1E120D" stroke-width="0.5" stroke-miterlimit="10" d="M97.28 14.06l-2.22 0.49 1.29 5.87c0.56,2.53 1.07,4.56 1.73,6.68l-0.06 0.04c-1.06,-1.54 -2.35,-3.17 -3.74,-4.7l-5.78 -6.45 -2.62 0.58 3.5 15.91 2.23 -0.49 -1.31 -5.95c-0.61,-2.79 -1.11,-4.84 -1.68,-6.83l0.08 -0.04c1.12,1.63 2.49,3.3 3.83,4.81l5.82 6.53 2.43 -0.54 -3.5 -15.91z"/>
    <path fill="#1E120D" fill-rule="nonzero" d="M110.38 13.53l-3.02 -0.03 -5.15 16.25 2.54 0.03 1.45 -4.78 4.98 0.04 1.43 4.81 2.6 0.03 -4.83 -16.35zm-3.78 9.57l1.35 -4.26c0.28,-1 0.55,-2.19 0.79,-3.19l0.05 0c0.22,1 0.48,2.15 0.77,3.23l1.24 4.26 -4.2 -0.04z"/>
    <path fill="none" fill-rule="nonzero" stroke="#1E120D" stroke-width="0.5" stroke-miterlimit="10" d="M110.38 13.54l-3.02 -0.03 -5.15 16.24 2.54 0.03 1.45 -4.78 4.98 0.05 1.43 4.8 2.6 0.03 -4.83 -16.34zm-3.78 9.57l1.34 -4.27c0.29,-1 0.56,-2.19 0.8,-3.19l0.04 0c0.23,1 0.49,2.16 0.78,3.22l1.24 4.28 -4.2 -0.04z"/>
    <polygon fill="#1E120D" fill-rule="nonzero" points="128.8,16.1 117.75,13.91 117.34,15.98 121.65,16.83 118.89,30.75 121.32,31.23 124.07,17.31 128.39,18.16 "/>
    <polygon fill="none" fill-rule="nonzero" stroke="#1E120D" stroke-width="0.5" stroke-miterlimit="10" points="128.8,16.1 117.75,13.91 117.34,15.98 121.64,16.83 118.89,30.75 121.32,31.23 124.07,17.31 128.39,18.17 "/>
    <polygon fill="#1E120D" fill-rule="nonzero" points="126.86,32.71 129.2,33.51 134.46,18.09 132.12,17.29 "/>
    <polygon fill="none" fill-rule="nonzero" stroke="#1E120D" stroke-width="0.5" stroke-miterlimit="10" points="126.86,32.71 129.2,33.51 134.46,18.09 132.12,17.29 "/>
    <path fill="#1E120D" fill-rule="nonzero" d="M145.19 22.62c-3.68,-1.98 -7.78,-0.38 -10.22,4.14 -2.34,4.33 -1.59,8.56 2.06,10.53 3.49,1.88 7.53,0.8 10.22,-4.19 2.23,-4.12 1.74,-8.43 -2.06,-10.48zm-1.04 1.74c2.57,1.39 2.26,4.85 0.78,7.58 -1.65,3.06 -4.35,4.97 -6.86,3.61 -2.48,-1.33 -2.35,-4.7 -0.79,-7.61 1.52,-2.81 4.23,-5.01 6.87,-3.58z"/>
    <path fill="none" fill-rule="nonzero" stroke="#1E120D" stroke-width="0.5" stroke-miterlimit="10" d="M145.19 22.62c-3.68,-1.98 -7.79,-0.38 -10.22,4.14 -2.34,4.33 -1.59,8.56 2.06,10.53 3.49,1.88 7.53,0.8 10.22,-4.19 2.23,-4.12 1.74,-8.43 -2.06,-10.48zm-1.04 1.74c2.57,1.39 2.25,4.85 0.78,7.58 -1.65,3.06 -4.35,4.97 -6.86,3.61 -2.48,-1.33 -2.35,-4.7 -0.79,-7.61 1.52,-2.81 4.23,-5.01 6.87,-3.58z"/>
    <path fill="#1E120D" fill-rule="nonzero" d="M164.2 37.16l-1.7 -1.52 -4.01 4.47c-1.73,1.94 -3.08,3.54 -4.42,5.31l-0.06 -0.02c0.63,-1.76 1.21,-3.77 1.63,-5.78l1.87 -8.46 -2 -1.79 -10.88 12.13 1.7 1.52 4.07 -4.53c1.9,-2.13 3.28,-3.73 4.56,-5.35l0.08 0.04c-0.67,1.86 -1.22,3.94 -1.67,5.92l-1.9 8.53 1.85 1.66 10.88 -12.13z"/>
    <path fill="none" fill-rule="nonzero" stroke="#1E120D" stroke-width="0.5" stroke-miterlimit="10" d="M164.2 37.16l-1.7 -1.52 -4.01 4.47c-1.73,1.94 -3.08,3.53 -4.41,5.31l-0.07 -0.02c0.63,-1.76 1.2,-3.77 1.64,-5.78l1.86 -8.46 -2 -1.79 -10.88 12.13 1.7 1.52 4.07 -4.53c1.9,-2.13 3.28,-3.73 4.56,-5.35l0.08 0.04c-0.67,1.86 -1.22,3.94 -1.67,5.91l-1.9 8.54 1.85 1.66 10.88 -12.13z"/>
    <path fill="#1E120D" fill-rule="nonzero" d="M172.27 47.46l-1.74 -2.47 -16.19 5.34 1.47 2.07 4.72 -1.62 2.88 4.07 -3.06 3.97 1.5 2.12 10.42 -13.48zm-9.97 2.54l4.25 -1.41c0.97,-0.36 2.09,-0.84 3.05,-1.22l0.02 0.03c-0.68,0.77 -1.46,1.66 -2.16,2.52l-2.74 3.5 -2.42 -3.42z"/>
    <path fill="none" fill-rule="nonzero" stroke="#1E120D" stroke-width="0.5" stroke-miterlimit="10" d="M172.27 47.46l-1.75 -2.47 -16.18 5.34 1.47 2.07 4.72 -1.62 2.88 4.07 -3.06 3.97 1.5 2.12 10.42 -13.48zm-9.97 2.54l4.25 -1.41c0.97,-0.36 2.09,-0.84 3.05,-1.22l0.02 0.03c-0.68,0.77 -1.46,1.66 -2.16,2.52l-2.74 3.5 -2.42 -3.42z"/>
    <polygon fill="#1E120D" fill-rule="nonzero" points="167.9,69.55 165.32,63.82 178.27,57.98 177.26,55.73 162.4,62.43 166,70.41 "/>
    <polygon fill="none" fill-rule="nonzero" stroke="#1E120D" stroke-width="0.5" stroke-miterlimit="10" points="167.9,69.55 165.32,63.82 178.27,57.98 177.26,55.73 162.4,62.43 166,70.41 "/>
    <path fill="url(#id9)" d="M62.12 163.21c-31.09,13.15 -52.06,26.3 -51.67,26.19l0 0c102.37,-31.25 157.73,-1.49 157.73,-1.49l0 0c-11.52,-41.34 46.72,-45.54 46.72,-45.54l0 0c-13.2,-3.75 -27.01,-5.35 -40.96,-5.35 -39.9,0 -80.87,13.1 -111.82,26.19l0 0z"/>
    <path fill="none" fill-rule="nonzero" stroke="#1E120D" stroke-width="1.01" stroke-miterlimit="10" d="M10.45 189.4c-0.9,0.27 115.47,-72.32 204.45,-47.03 0,0 -58.24,4.2 -46.72,45.54 0,0 -55.36,-29.76 -157.73,1.49"/>
    <path fill="url(#id10)" d="M75.95 160.52c-27.33,10.38 -45.8,20.76 -45.46,20.66l0 0c80.02,-23.07 134.27,2.46 134.27,2.46 -10.31,-32.65 33.38,-41.98 33.38,-41.98l0 0c-7.9,-1.25 -15.97,-1.81 -24.11,-1.81l0 0c-34.91,0 -70.89,10.34 -98.08,20.67l0 0z"/>
    <path fill="none" fill-rule="nonzero" stroke="white" stroke-width="0.5" stroke-miterlimit="10" d="M30.49 181.18c-0.76,0.22 91.8,-51.54 167.65,-39.52 0,0 -43.69,9.33 -33.38,41.98 0,0 -54.25,-25.53 -134.27,-2.46z"/>
    <polygon fill="white" fill-rule="nonzero" points="51.52,67.1 52.51,64.83 37.57,58.32 36.58,60.58 "/>
    <path fill="white" fill-rule="nonzero" d="M46.15 43.53l-1.23 1.92 5.04 3.26c2.18,1.41 3.97,2.48 5.94,3.53l-0.01 0.06c-1.84,-0.34 -3.91,-0.59 -5.97,-0.7l-8.64 -0.52 -1.46 2.26 13.69 8.84 1.23 -1.92 -5.11 -3.3c-2.4,-1.55 -4.19,-2.66 -6,-3.67l0.03 -0.09c1.94,0.37 4.08,0.59 6.1,0.72l8.73 0.55 1.35 -2.09 -13.69 -8.85z"/>
    <polygon fill="white" fill-rule="nonzero" points="56.86,32.07 48.95,40.08 50.45,41.56 53.53,38.44 63.63,48.41 65.37,46.65 55.27,36.68 58.36,33.55 "/>
    <polygon fill="white" fill-rule="nonzero" points="75.53,36.03 70.3,39.73 67.17,35.32 71.83,32.02 70.65,30.35 65.99,33.65 63.27,29.8 68.21,26.31 67.01,24.62 60.06,29.54 69.48,42.84 76.73,37.71 "/>
    <path fill="white" fill-rule="nonzero" d="M81.42 26.81c1.23,-1.25 1.8,-3.08 0.92,-4.98 -0.55,-1.19 -1.42,-2.03 -2.52,-2.36 -1.3,-0.4 -2.82,-0.12 -4.76,0.77 -1.33,0.61 -2.58,1.35 -3.45,1.96l6.72 14.61 2.23 -1.02 -2.89 -6.27 1.36 -0.63c1.57,-0.72 2.63,-0.29 3.94,1.49 1.2,1.66 2.15,2.79 2.56,3.12l2.32 -1.07c-0.55,-0.43 -1.62,-1.79 -2.95,-3.52 -1.08,-1.41 -2.18,-2.16 -3.46,-2.06l-0.02 -0.04zm-4.52 1.02l-2.35 -5.09c0.24,-0.2 0.76,-0.5 1.51,-0.85 1.6,-0.74 3.26,-0.7 4.14,1.21 0.73,1.59 0.07,3.18 -1.79,4.04l-1.51 0.69z"/>
    <path fill="white" fill-rule="nonzero" d="M97.12 13.55l-2.23 0.49 1.29 5.86c0.56,2.54 1.07,4.57 1.73,6.69l-0.05 0.04c-1.06,-1.54 -2.36,-3.18 -3.74,-4.7l-5.78 -6.45 -2.62 0.57 3.5 15.92 2.23 -0.49 -1.31 -5.95c-0.62,-2.79 -1.11,-4.84 -1.68,-6.83l0.08 -0.04c1.12,1.63 2.49,3.29 3.83,4.81l5.82 6.53 2.43 -0.54 -3.5 -15.91z"/>
    <path fill="white" fill-rule="nonzero" d="M110.22 13.02l-3.03 -0.03 -5.14 16.25 2.53 0.03 1.46 -4.79 4.98 0.05 1.42 4.81 2.6 0.03 -4.82 -16.35zm-3.79 9.57l1.35 -4.27c0.28,-0.99 0.55,-2.18 0.8,-3.18l0.04 0c0.22,1 0.49,2.15 0.78,3.22l1.23 4.27 -4.2 -0.04z"/>
    <polygon fill="white" fill-rule="nonzero" points="128.64,15.58 117.58,13.4 117.17,15.47 121.48,16.32 118.73,30.24 121.15,30.72 123.9,16.8 128.23,17.65 "/>
    <polygon fill="white" fill-rule="nonzero" points="126.69,32.2 129.03,33 134.3,17.58 131.96,16.78 "/>
    <path fill="white" fill-rule="nonzero" d="M145.02 22.11c-3.67,-1.98 -7.78,-0.38 -10.22,4.14 -2.33,4.33 -1.59,8.56 2.06,10.53 3.49,1.88 7.54,0.8 10.23,-4.19 2.22,-4.12 1.74,-8.43 -2.07,-10.48zm-1.03 1.74c2.57,1.39 2.25,4.84 0.77,7.58 -1.64,3.06 -4.35,4.97 -6.86,3.61 -2.47,-1.33 -2.35,-4.7 -0.78,-7.61 1.51,-2.81 4.22,-5.01 6.87,-3.58z"/>
    <path fill="white" fill-rule="nonzero" d="M164.03 36.65l-1.69 -1.52 -4.01 4.47c-1.74,1.93 -3.08,3.53 -4.42,5.31l-0.06 -0.02c0.63,-1.76 1.2,-3.77 1.63,-5.78l1.87 -8.46 -2 -1.79 -10.89 12.13 1.7 1.52 4.07 -4.53c1.91,-2.13 3.28,-3.73 4.56,-5.35l0.09 0.04c-0.68,1.86 -1.23,3.94 -1.67,5.91l-1.91 8.54 1.85 1.66 10.88 -12.13z"/>
    <path fill="white" fill-rule="nonzero" d="M172.11 46.95l-1.75 -2.47 -16.18 5.34 1.46 2.07 4.73 -1.62 2.88 4.06 -3.07 3.98 1.5 2.12 10.43 -13.48zm-9.97 2.53l4.24 -1.4c0.98,-0.36 2.1,-0.84 3.05,-1.22l0.03 0.03c-0.69,0.77 -1.46,1.66 -2.16,2.52l-2.74 3.5 -2.42 -3.43z"/>
    <polygon fill="white" fill-rule="nonzero" points="167.74,69.04 165.16,63.31 178.11,57.47 177.09,55.22 162.24,61.92 165.84,69.9 "/>
   </g>
  </g>
 </g>
</svg>
