<?xml version="1.0" encoding="UTF-8"?>
<!DOCTYPE svg PUBLIC "-//W3C//DTD SVG 1.1//EN" "http://www.w3.org/Graphics/SVG/1.1/DTD/svg11.dtd">
<!-- Creator: CorelDRAW 2018 (64 Bit Versão de avaliação) -->
<svg xmlns="http://www.w3.org/2000/svg" xml:space="preserve" width="840px" height="797px" version="1.1" shape-rendering="geometricPrecision" text-rendering="geometricPrecision" image-rendering="optimizeQuality" fill-rule="evenodd" clip-rule="evenodd"
viewBox="0 0 134.63 127.76"
 xmlns:xlink="http://www.w3.org/1999/xlink">
 <g id="Camada_x0020_1">
  <metadata id="CorelCorpID_0Corel-Layer"/>
  <path fill="white" d="M30.16 29.51c-12.8,19.69 2.95,27.57 2.95,27.57 -11.32,-20.68 33.96,-15.75 33.96,-15.75l0 0c-3.44,-3.94 -18.7,-6.89 -18.7,-6.89l0 0c2.95,-4.93 0.98,-18.22 0.98,-18.22l0 0c-12.67,3.75 -19.19,13.29 -19.19,13.29l0 0zm-20.71 50.73c23.76,21.57 44.61,1.69 44.61,1.69l0 0c9.21,-15.27 -1.46,-33.69 -1.46,-33.69l0 0c-3.15,47.51 -43.15,32 -43.15,32zm43.88 19.39c0,0 2.91,-2.67 4.85,-9.45 0,0 -25.46,17.69 -58.18,0.97 0,0 8.73,15.99 30.54,16.48l0 0c0,0 28.36,3.88 39.03,-17.45 0,0 -8,10.42 -16.24,9.45l0 0zm10.18 -11.88c8,-2.18 12.36,-10.66 12.36,-10.66l0 0c1.46,45.33 -56.96,37.33 -56.96,37.33l0 0c30.06,21.81 61.33,0.97 61.33,0.97l0 0c-5.09,9.93 -15.52,12.36 -15.52,12.36l0 0c40.24,0.73 29.09,-47.51 29.09,-47.51l0 0c-3.64,6.54 -10.42,7.75 -10.42,7.75l0 0c5.33,-33.93 -24.73,-42.66 -24.73,-42.66l0 0c16.24,18.18 4.85,42.42 4.85,42.42l0 0zm26.18 -9.69c4.12,-4.61 4.61,-8.25 4.61,-8.25l0 0c18.18,32.73 -0.49,53.82 -0.49,53.82l0 0c18.67,-9.94 19.63,-30.79 19.63,-30.79l0 0c4.13,11.15 1.22,19.39 1.22,19.39l0 0c11.15,-15.75 5.09,-30.3 5.09,-30.3l0 0c5.35,3.25 5.88,9.21 5.86,11.58l0 0c1.96,-42.75 -53.86,-52.3 -53.86,-52.3 19.88,16.73 17.94,36.85 17.94,36.85l0 0zm6.06 -44.61c-3.88,2.43 -22.3,3.88 -22.3,3.88l0 0c47.27,8 60.84,42.91 60.84,42.91l0 0c4.12,-41.45 -30.78,-47.51 -30.78,-47.51l0 0c-1.82,-0.91 -3.24,-1.24 -4.33,-1.24 -2.7,0 -3.43,1.96 -3.43,1.96l0 0zm-41.69 -2.91l8.24 0.25c2.07,-3.24 4.3,-5.96 6.63,-8.22l0 0c0.6,2.2 2.07,4.04 4.02,5.13l0 0c-1.9,-0.08 -3.14,-0.31 -3.14,-0.31l0 0 -3.39 5.09c14.54,5.58 30.54,-5.33 30.54,-5.33l0 0c15.76,-5.09 35.64,16.97 35.64,16.97 -10.67,-33.94 -42.18,-24 -42.18,-24l0 0c-1.93,2.93 -4.51,4.75 -7.19,5.88l0 0c1.36,-1.49 2.2,-3.47 2.2,-5.64l0 0c0,-2.45 -1.05,-4.64 -2.72,-6.18l0 0c19.91,-6.42 40.92,6.67 40.92,6.67l0 0c-12.12,-20.12 -35.39,-18.18 -35.39,-18.18l0 0c-0.47,-0.04 -0.93,-0.05 -1.39,-0.05l0 0c-18.48,-0.01 -32.79,27.92 -32.79,27.92zm26.98 -10.18c0,-2.07 -1.57,-3.77 -3.58,-3.99l0 0c1.13,-0.59 2.27,-1.09 3.42,-1.54l0 0c1.75,1.22 2.89,3.24 2.89,5.53l0 0c0,3.72 -3.02,6.74 -6.74,6.74l0 0c-3.42,0 -6.23,-2.55 -6.67,-5.84l0 0c0.96,-0.84 1.93,-1.62 2.92,-2.32l0 0c-0.17,0.44 -0.26,0.92 -0.26,1.42l0 0c0,2.21 1.79,4.01 4.01,4.01l0 0c2.21,0 4.01,-1.8 4.01,-4.01l0 0zm-39.35 -5.57c9.46,-4.61 14.31,-4.61 14.31,-4.61l0 0c-3.88,5.58 -2.67,14.06 -2.67,14.06l0 0c11.15,-19.88 25.69,-23.75 25.69,-23.75l0 0c-1.85,-0.34 -3.68,-0.49 -5.47,-0.49l0 0c-17.67,0 -31.86,14.79 -31.86,14.79l0 0z"/>
 </g>
</svg>
