<?xml version="1.0" encoding="UTF-8"?>
<!DOCTYPE svg PUBLIC "-//W3C//DTD SVG 1.1//EN" "http://www.w3.org/Graphics/SVG/1.1/DTD/svg11.dtd">
<!-- Creator: CorelDRAW 2018 (64 Bit Versão de avaliação) -->
<svg xmlns="http://www.w3.org/2000/svg" xml:space="preserve" width="1000px" height="255px" version="1.1" style="shape-rendering:geometricPrecision; text-rendering:geometricPrecision; image-rendering:optimizeQuality; fill-rule:evenodd; clip-rule:evenodd"
viewBox="0 0 829.93 211.52"
 xmlns:xlink="http://www.w3.org/1999/xlink">
 <defs>
  <style type="text/css">
   <![CDATA[
    .fil37 {fill:none}
    .fil36 {fill:#FEFEFE}
    .fil7 {fill:#F7993F}
    .fil6 {fill:#F47B43}
    .fil2 {fill:#EF4F47}
    .fil5 {fill:#EE4389}
    .fil3 {fill:#EE3E48}
    .fil4 {fill:#EC385F}
    .fil8 {fill:#D6C13F}
    .fil16 {fill:#934698}
    .fil9 {fill:#69BD54}
    .fil18 {fill:#00AF5A}
    .fil1 {fill:#00AD89}
    .fil15 {fill:#3C56A3}
    .fil17 {fill:#0099B7}
    .fil10 {fill:#00AA5B}
    .fil11 {fill:#0098A0}
    .fil12 {fill:#017DB0}
    .fil14 {fill:#0875B5}
    .fil13 {fill:#1B67A5}
    .fil31 {fill:#0064B5}
    .fil34 {fill:#00A3C4}
    .fil29 {fill:#00A4AD}
    .fil28 {fill:#00AB5B}
    .fil35 {fill:#00B35C}
    .fil19 {fill:#00BD97}
    .fil30 {fill:#047CC2}
    .fil32 {fill:#1F41A6}
    .fil27 {fill:#57C23C}
    .fil33 {fill:#94289C}
    .fil21 {fill:#EB2A34}
    .fil22 {fill:#ED2651}
    .fil26 {fill:#F0D62D}
    .fil23 {fill:#F52C80}
    .fil24 {fill:#F56F31}
    .fil20 {fill:#FF473D}
    .fil25 {fill:#FF912B}
    .fil0 {fill:white}
   ]]>
  </style>
 </defs>
 <g id="Camada_x0020_1">
  <metadata id="CorelCorpID_0Corel-Layer"/>
  <g id="_1917753002928">
   <g>
    <path class="fil0" d="M801.83 59.11l2.19 -14.72c0.47,-2.82 -0.16,-3.45 -2.66,-3.45l-83 0c-2.5,0 -2.97,0.63 -3.6,3.45l-2.19 14.72c-0.16,2.5 0.31,3.28 2.82,3.28l28.65 0 -12.99 90.98c-0.47,2.67 0.62,3.45 3.28,3.45l17.39 0c3.13,0 3.76,-0.63 4.22,-3.45l13 -90.98 29.44 0c2.5,0 2.98,-0.78 3.45,-3.28zm-106.33 93.95l0 0 1.72 -14.09c0.47,-3.29 0.16,-3.92 -2.66,-3.92l-43.69 0c-6.73,0 -10.18,-2.19 -9.08,-9.86l2.66 -18.95 46.51 0c2.5,0 3.13,-1.1 3.6,-3.76l1.88 -12.84c0.47,-3.13 0.16,-3.91 -2.51,-3.91l-46.5 0 1.88 -12.84c0.63,-5.8 3.28,-10.34 11.9,-10.34l39.92 0c2.67,0 3.29,-0.79 3.76,-3.6l2.04 -14.09c0.47,-3.13 0,-3.92 -2.82,-3.92l-47.29 0c-23.01,0 -29.9,14.88 -32.1,30.53l-7.83 54.97c-2.19,15.03 1.41,30.38 25.68,30.38l49.02 0c2.5,0 3.28,-1.1 3.91,-3.76zm-151.42 -74.07l0 0 0.78 0 10.02 22.87 21.61 47.6c2.67,6.26 4.39,7.36 10.96,7.36l6.89 0c8.46,0 10.81,-4.39 12.06,-11.43l14.25 -101c0.31,-2.35 -0.62,-3.45 -3.13,-3.45l-17.07 0c-3.13,0 -3.76,0.79 -4.39,3.45l-10.48 74.37 -0.79 0 -10.18 -23.01 -21.3 -47.29c-3.12,-6.42 -4.22,-7.52 -10.96,-7.52l-6.88 0c-7.99,0 -10.97,2.98 -12.22,11.59l-14.25 100.84c-0.63,2.67 0.78,3.45 3.29,3.45l17.07 0c3.13,0 3.6,-0.63 4.07,-3.45l10.65 -74.38zm-112.75 -35.38l0 0 -8.92 62.63c-5.33,38.83 4.38,50.58 41.02,50.58 6.9,0 18.48,-0.63 26.62,-2.19 8.15,-1.42 11.28,-5.8 12.37,-12.53l14.26 -98.49c0.47,-2.2 0.15,-2.67 -2.04,-2.67l-7.36 0c-1.88,0 -2.82,0.47 -2.98,2.67l-14.56 99.74c-10.18,1.88 -20.2,2.19 -24.12,2.19 -31.78,0 -34.6,-12.21 -30.53,-40.4l9.09 -61.53c0.15,-2.2 -0.32,-2.67 -2.51,-2.67l-7.2 0c-1.88,0 -2.98,0.47 -3.14,2.67zm-55.9 8.45l0 0c22.08,0 29.6,14.09 29.6,32.57 0,31.32 -13.94,61.07 -43.85,61.07 -21.45,0 -28.97,-13.31 -28.97,-32.41 0,-30.69 13.15,-61.23 43.22,-61.23zm0.63 -11.12l0 0c-31.32,0 -56.53,27.09 -56.53,73.76 0,26.3 13.62,42.12 40.55,42.12 37.12,0 57,-32.89 57,-72.51 0,-27.71 -14.09,-43.37 -41.02,-43.37zm-96.93 11.28l0 0c8.61,0 18.95,1.56 29.44,5.95 0.78,0.62 1.25,0.47 2.19,-0.79l2.82 -7.52c0.46,-1.4 0.15,-1.88 -0.94,-2.34 -9.55,-4.7 -22.4,-6.58 -32.42,-6.58 -24.11,0 -39.3,10.81 -39.3,29.76 0,14.71 10.49,21.6 32.73,31.16 16.59,6.89 25.05,11.74 25.05,22.7 0,14.88 -12.21,20.98 -30.53,20.98 -10.03,0 -22.71,-2.34 -32.73,-7.67 -1.25,-0.31 -2.04,0 -2.51,0.78l-3.75 7.05c-0.79,1.56 -0.63,2.51 0.31,2.98 11.74,6.57 28.34,8.14 39.77,8.14 24.59,0 43.38,-10.34 43.38,-33.05 0,-16.91 -13.31,-25.21 -31.16,-32.09 -16.6,-6.89 -26.94,-11.43 -26.94,-21.3 0,-11.59 10.03,-18.16 24.59,-18.16z"/>
    <path class="fil1" d="M57.08 100.61c35.37,13.76 61.04,46.92 63.73,86.5 3.81,-0.28 7.55,-0.8 11.21,-1.55l0.26 -0.05 0.27 -0.06 0.09 -0.02c1.83,-0.4 3.63,-0.86 5.4,-1.36 1.72,-10.97 5.48,-21.15 10.96,-30.23 -18.16,-15.66 -30.69,-37.74 -34.14,-62.79 -3.44,0.31 -6.89,0.47 -10.33,0.47 -17.07,0 -33.04,-4.23 -47.13,-11.59 0.15,2.82 0.31,5.8 0.31,8.78 0,4.06 -0.16,7.98 -0.63,11.9z"/>
    <path class="fil2" d="M102.49 29.98c-3.28,-5.47 -5.93,-11.24 -8.12,-17.33 -9.29,2.13 -18.02,5.72 -25.93,10.52l-0.26 0.16c-0.38,0.24 -0.76,0.48 -1.14,0.72 -7.43,4.72 -14.11,10.51 -19.86,17.13 -0.25,0.28 -0.49,0.57 -0.73,0.86 3.75,0.47 7.66,0.78 11.57,0.78 16.29,0 31.63,-4.7 44.47,-12.84z"/>
    <path class="fil3" d="M94.37 12.65c2.19,6.09 4.84,11.86 8.12,17.33 7.99,-5.17 15.19,-11.58 20.98,-19.09 -3.04,-0.32 -6.11,-0.48 -9.23,-0.48 -6.83,0 -13.48,0.77 -19.87,2.24z"/>
    <path class="fil4" d="M123.47 10.89c-5.79,7.51 -12.99,13.92 -20.98,19.09 4.23,7.2 9.55,13.94 15.35,20.05 3.91,-13.61 10.63,-25.96 19.38,-36.6 -0.97,-0.26 -1.94,-0.51 -2.92,-0.74 -1.6,-0.35 -3.2,-0.68 -4.81,-0.97 -1.98,-0.34 -3.99,-0.62 -6.02,-0.83z"/>
    <g>
     <path class="fil5" d="M137.22 13.43c-8.75,10.64 -15.47,22.99 -19.38,36.6 11.43,11.42 25.52,20.35 41.18,25.36 10.96,-7.04 20.52,-16.28 27.88,-26.93 -5.66,-8.14 -12.65,-15.3 -20.66,-21.15l-0.24 -0.18c-0.3,-0.21 -0.6,-0.43 -0.9,-0.64 -0.46,-0.33 -0.92,-0.65 -1.38,-0.96l-0.02 -0.01 -0.02 -0.02c-7.99,-5.39 -16.91,-9.51 -26.46,-12.07zm27.88 13.06c-0.46,-0.33 -0.92,-0.65 -1.38,-0.96l1.38 0.96z"/>
    </g>
    <path class="fil6" d="M114.08 77.58c0,-9.55 1.26,-18.79 3.76,-27.55 -5.8,-6.11 -11.12,-12.85 -15.35,-20.05 -12.84,8.14 -28.18,12.84 -44.47,12.84 -3.91,0 -7.82,-0.31 -11.57,-0.78l-0.16 0.18c6.1,11.43 9.85,24.1 11.11,37.71 14.09,7.36 30.06,11.59 47.13,11.59 3.44,0 6.89,-0.16 10.33,-0.47 -0.47,-4.38 -0.78,-8.93 -0.78,-13.47z"/>
    <path class="fil7" d="M57.4 79.93c-1.26,-13.61 -5.01,-26.28 -11.11,-37.71 -0.89,1.07 -1.76,2.17 -2.6,3.28 -3.52,4.7 -6.6,9.75 -9.25,15.14 -0.28,0.59 -0.56,1.18 -0.83,1.77 7.04,6.88 15.02,12.83 23.79,17.52z"/>
    <path class="fil8" d="M57.4 79.93c-8.77,-4.69 -16.75,-10.64 -23.79,-17.52 -1.76,3.89 -3.25,7.93 -4.44,12.09l-0.11 0.39c-0.13,0.46 -0.25,0.91 -0.37,1.37 -1.49,5.68 -2.43,11.57 -2.77,17.61 10.96,0.63 21.45,2.97 31.16,6.74 0.47,-3.92 0.63,-7.84 0.63,-11.9 0,-2.98 -0.16,-5.96 -0.31,-8.78z"/>
    <path class="fil9" d="M57.08 100.61c-9.71,-3.77 -20.2,-6.11 -31.16,-6.74 -0.01,0.18 -0.03,0.35 -0.04,0.53 -0.08,1.49 -0.11,2.98 -0.11,4.48 0,0.76 0.01,1.52 0.02,2.27l0 0.02c0.43,16.59 5.42,32.04 13.76,45.15 9.39,-13.31 15.5,-28.81 17.53,-45.71z"/>
    <path class="fil10" d="M115.48 187.34c-18.95,-21.13 -45.25,-35.69 -74.84,-39.45 10.09,15.19 24.78,27.07 42.07,33.67l0.34 0.13c1.14,0.43 2.28,0.83 3.44,1.22 0.24,0.07 0.47,0.15 0.71,0.23 0.48,0.15 0.96,0.3 1.45,0.45 0.3,0.09 0.61,0.18 0.91,0.27 0.31,0.09 0.61,0.17 0.91,0.26 0.36,0.1 0.73,0.2 1.09,0.29 0.38,0.1 0.76,0.2 1.14,0.29 0.36,0.09 0.72,0.18 1.08,0.27 0.26,0.06 0.52,0.12 0.78,0.18 0.54,0.12 1.07,0.24 1.61,0.35 0.23,0.05 0.45,0.09 0.67,0.14 0.43,0.08 0.87,0.17 1.3,0.25 0.2,0.03 0.4,0.07 0.6,0.11 0.58,0.1 1.15,0.19 1.73,0.28l0.62 0.1c0.59,0.08 1.18,0.17 1.77,0.25l0.36 0.04c0.56,0.07 1.12,0.13 1.68,0.19 0.16,0.02 0.33,0.04 0.5,0.05 0.62,0.07 1.26,0.12 1.89,0.17l0.43 0.03c0.57,0.04 1.14,0.08 1.71,0.11l0.36 0.02c0.66,0.03 1.32,0.06 1.97,0.08l0.43 0.01c0.68,0.01 1.36,0.02 2.05,0.02 0.41,0 0.82,-0.01 1.24,-0.01z"/>
    <path class="fil11" d="M149 153.84c-5.48,9.08 -9.24,19.26 -10.96,30.23 6.62,-1.86 13,-4.46 18.95,-7.73 4.58,-2.53 8.92,-5.46 12.96,-8.74 -7.51,-3.75 -14.54,-8.29 -20.95,-13.76z"/>
    <path class="fil12" d="M149 153.84c6.41,5.47 13.44,10.01 20.95,13.76 1.08,-0.88 2.15,-1.79 3.2,-2.72 0.3,-0.28 0.61,-0.56 0.92,-0.84 0.47,-0.43 0.93,-0.86 1.39,-1.3 -3.29,-10.01 -5.32,-20.81 -5.94,-31.76 -8.15,6.27 -15.04,13.94 -20.52,22.86z"/>
    <path class="fil13" d="M169.52 130.98c0.62,10.95 2.65,21.75 5.94,31.76 12.88,-12.35 22.03,-28.56 25.59,-46.77 -11.7,2.67 -22.32,7.98 -31.53,15.01z"/>
    <path class="fil14" d="M169.52 130.98c9.21,-7.03 19.83,-12.34 31.53,-15.01 0.37,-1.87 0.68,-3.76 0.93,-5.67 0.31,-2.51 0.53,-5.06 0.64,-7.62 0.02,-0.39 0.04,-0.79 0.05,-1.18l0.01 -0.55c0.02,-0.69 0.03,-1.38 0.03,-2.07 0,-5.86 -0.57,-11.58 -1.66,-17.12 -0.12,-0.56 -0.24,-1.12 -0.37,-1.67 -3.14,0.31 -6.42,0.47 -9.71,0.47 -4.39,0 -8.62,-0.31 -12.84,-0.78 -5.64,13.93 -8.77,29.28 -8.77,45.25 0,2.04 0.16,3.91 0.16,5.95z"/>
    <path class="fil15" d="M178.13 79.78c4.22,0.47 8.45,0.78 12.84,0.78 3.29,0 6.57,-0.16 9.71,-0.47 -0.74,-3.42 -1.66,-6.76 -2.77,-10.02 -0.17,-0.49 -0.34,-0.99 -0.52,-1.48l-0.09 -0.23c-0.47,-1.29 -0.98,-2.57 -1.51,-3.83l-0.08 -0.18c-0.19,-0.46 -0.39,-0.92 -0.6,-1.38 -1.14,-2.56 -2.42,-5.05 -3.83,-7.46 -5.17,7.51 -9.55,15.65 -13.15,24.27z"/>
    <path class="fil16" d="M178.13 79.78c3.6,-8.62 7.98,-16.76 13.15,-24.27 -1.25,-2.51 -2.82,-4.7 -4.38,-7.05 -7.36,10.65 -16.92,19.89 -27.88,26.93 6.27,2.04 12.53,3.44 19.11,4.39z"/>
    <path class="fil17" d="M178.13 79.78c-6.58,-0.95 -12.84,-2.35 -19.11,-4.39 -12.84,8.46 -27.87,13.94 -44.16,15.66 3.45,25.05 15.98,47.13 34.14,62.79 5.48,-8.92 12.37,-16.59 20.52,-22.86 0,-2.04 -0.16,-3.91 -0.16,-5.95 0,-15.97 3.13,-31.32 8.77,-45.25z"/>
    <path class="fil18" d="M120.96 187.1c-3.01,-39.42 -28.67,-72.88 -63.88,-86.49 -2.03,16.9 -8.14,32.4 -17.53,45.71 0.2,0.31 0.4,0.62 0.6,0.92 0.18,0.23 0.35,0.44 0.49,0.65 29.43,3.76 55.74,18.47 74.68,39.45 1.9,-0.03 3.78,-0.1 5.64,-0.24z"/>
    <path class="fil16" d="M159.02 75.39c-15.66,-5.01 -29.75,-13.94 -41.18,-25.36 -2.5,8.76 -3.76,18 -3.76,27.55 0,4.54 0.31,9.09 0.78,13.47 16.29,-1.72 31.32,-7.2 44.16,-15.66z"/>
    <path class="fil19" d="M57.08 100.61c35.37,13.76 61.04,46.92 63.73,86.5 3.81,-0.28 7.55,-0.8 11.21,-1.55l0.26 -0.05 0.27 -0.06 0.09 -0.02c1.83,-0.4 3.63,-0.86 5.4,-1.36 1.72,-10.97 5.48,-21.15 10.96,-30.23 -18.16,-15.66 -30.69,-37.74 -34.14,-62.79 -3.44,0.31 -6.89,0.47 -10.33,0.47 -17.07,0 -33.04,-4.23 -47.13,-11.59 0.15,2.82 0.31,5.8 0.31,8.78 0,4.06 -0.16,7.98 -0.63,11.9z"/>
    <path class="fil20" d="M102.49 29.98c-3.28,-5.47 -5.93,-11.24 -8.12,-17.33 -9.29,2.13 -18.02,5.72 -25.93,10.52l-0.26 0.16c-0.38,0.24 -0.76,0.48 -1.14,0.72 -7.43,4.72 -14.11,10.51 -19.86,17.13 -0.25,0.28 -0.49,0.57 -0.73,0.86 3.75,0.47 7.66,0.78 11.57,0.78 16.29,0 31.63,-4.7 44.47,-12.84z"/>
    <path class="fil21" d="M94.37 12.65c2.19,6.09 4.84,11.86 8.12,17.33 7.99,-5.17 15.19,-11.58 20.98,-19.09 -3.04,-0.32 -6.11,-0.48 -9.23,-0.48 -6.83,0 -13.48,0.77 -19.87,2.24z"/>
    <path class="fil22" d="M123.47 10.89c-5.79,7.51 -12.99,13.92 -20.98,19.09 4.23,7.2 9.55,13.94 15.35,20.05 3.91,-13.61 10.63,-25.96 19.38,-36.6 -0.97,-0.26 -1.94,-0.51 -2.92,-0.74 -1.6,-0.35 -3.2,-0.68 -4.81,-0.97 -1.98,-0.34 -3.99,-0.62 -6.02,-0.83z"/>
    <g>
     <path class="fil23" d="M137.22 13.43c-8.75,10.64 -15.47,22.99 -19.38,36.6 11.43,11.42 25.52,20.35 41.18,25.36 10.96,-7.04 20.52,-16.28 27.88,-26.93 -5.66,-8.14 -12.65,-15.3 -20.66,-21.15l-0.24 -0.18c-0.3,-0.21 -0.6,-0.43 -0.9,-0.64 -0.46,-0.33 -0.92,-0.65 -1.38,-0.96l-0.02 -0.01 -0.02 -0.02c-7.99,-5.39 -16.91,-9.51 -26.46,-12.07zm27.88 13.06c-0.46,-0.33 -0.92,-0.65 -1.38,-0.96l1.38 0.96z"/>
    </g>
    <path class="fil24" d="M114.08 77.58c0,-9.55 1.26,-18.79 3.76,-27.55 -5.8,-6.11 -11.12,-12.85 -15.35,-20.05 -12.84,8.14 -28.18,12.84 -44.47,12.84 -3.91,0 -7.82,-0.31 -11.57,-0.78l-0.16 0.18c6.1,11.43 9.85,24.1 11.11,37.71 14.09,7.36 30.06,11.59 47.13,11.59 3.44,0 6.89,-0.16 10.33,-0.47 -0.47,-4.38 -0.78,-8.93 -0.78,-13.47z"/>
    <path class="fil25" d="M57.4 79.93c-1.26,-13.61 -5.01,-26.28 -11.11,-37.71 -0.89,1.07 -1.76,2.17 -2.6,3.28 -3.52,4.7 -6.6,9.75 -9.25,15.14 -0.28,0.59 -0.56,1.18 -0.83,1.77 7.04,6.88 15.02,12.83 23.79,17.52z"/>
    <path class="fil26" d="M57.4 79.93c-8.77,-4.69 -16.75,-10.64 -23.79,-17.52 -1.76,3.89 -3.25,7.93 -4.44,12.09l-0.11 0.39c-0.13,0.46 -0.25,0.91 -0.37,1.37 -1.49,5.68 -2.43,11.57 -2.77,17.61 10.96,0.63 21.45,2.97 31.16,6.74 0.47,-3.92 0.63,-7.84 0.63,-11.9 0,-2.98 -0.16,-5.96 -0.31,-8.78z"/>
    <path class="fil27" d="M57.08 100.61c-9.71,-3.77 -20.2,-6.11 -31.16,-6.74 -0.01,0.18 -0.03,0.35 -0.04,0.53 -0.08,1.49 -0.11,2.98 -0.11,4.48 0,0.76 0.01,1.52 0.02,2.27l0 0.02c0.43,16.59 5.42,32.04 13.76,45.15 9.39,-13.31 15.5,-28.81 17.53,-45.71z"/>
    <path class="fil28" d="M115.48 187.34c-18.95,-21.13 -45.25,-35.69 -74.84,-39.45 10.09,15.19 24.78,27.07 42.07,33.67l0.34 0.13c1.14,0.43 2.28,0.83 3.44,1.22 0.24,0.07 0.47,0.15 0.71,0.23 0.48,0.15 0.96,0.3 1.45,0.45 0.3,0.09 0.61,0.18 0.91,0.27 0.31,0.09 0.61,0.17 0.91,0.26 0.36,0.1 0.73,0.2 1.09,0.29 0.38,0.1 0.76,0.2 1.14,0.29 0.36,0.09 0.72,0.18 1.08,0.27 0.26,0.06 0.52,0.12 0.78,0.18 0.54,0.12 1.07,0.24 1.61,0.35 0.23,0.05 0.45,0.09 0.67,0.14 0.43,0.08 0.87,0.17 1.3,0.25 0.2,0.03 0.4,0.07 0.6,0.11 0.58,0.1 1.15,0.19 1.73,0.28l0.62 0.1c0.59,0.08 1.18,0.17 1.77,0.25l0.36 0.04c0.56,0.07 1.12,0.13 1.68,0.19 0.16,0.02 0.33,0.04 0.5,0.05 0.62,0.07 1.26,0.12 1.89,0.17l0.43 0.03c0.57,0.04 1.14,0.08 1.71,0.11l0.36 0.02c0.66,0.03 1.32,0.06 1.97,0.08l0.43 0.01c0.68,0.01 1.36,0.02 2.05,0.02 0.41,0 0.82,-0.01 1.24,-0.01z"/>
    <path class="fil29" d="M149 153.84c-5.48,9.08 -9.24,19.26 -10.96,30.23 6.62,-1.86 13,-4.46 18.95,-7.73 4.58,-2.53 8.92,-5.46 12.96,-8.74 -7.51,-3.75 -14.54,-8.29 -20.95,-13.76z"/>
    <path class="fil30" d="M149 153.84c6.41,5.47 13.44,10.01 20.95,13.76 1.08,-0.88 2.15,-1.79 3.2,-2.72 0.3,-0.28 0.61,-0.56 0.92,-0.84 0.47,-0.43 0.93,-0.86 1.39,-1.3 -3.29,-10.01 -5.32,-20.81 -5.94,-31.76 -8.15,6.27 -15.04,13.94 -20.52,22.86z"/>
    <path class="fil31" d="M169.52 130.98c0.62,10.95 2.65,21.75 5.94,31.76 12.88,-12.35 22.03,-28.56 25.59,-46.77 -11.7,2.67 -22.32,7.98 -31.53,15.01z"/>
    <path class="fil30" d="M169.52 130.98c9.21,-7.03 19.83,-12.34 31.53,-15.01 0.37,-1.87 0.68,-3.76 0.93,-5.67 0.31,-2.51 0.53,-5.06 0.64,-7.62 0.02,-0.39 0.04,-0.79 0.05,-1.18l0.01 -0.55c0.02,-0.69 0.03,-1.38 0.03,-2.07 0,-5.86 -0.57,-11.58 -1.66,-17.12 -0.12,-0.56 -0.24,-1.12 -0.37,-1.67 -3.14,0.31 -6.42,0.47 -9.71,0.47 -4.39,0 -8.62,-0.31 -12.84,-0.78 -5.64,13.93 -8.77,29.28 -8.77,45.25 0,2.04 0.16,3.91 0.16,5.95z"/>
    <path class="fil32" d="M178.13 79.78c4.22,0.47 8.45,0.78 12.84,0.78 3.29,0 6.57,-0.16 9.71,-0.47 -0.74,-3.42 -1.66,-6.76 -2.77,-10.02 -0.17,-0.49 -0.34,-0.99 -0.52,-1.48l-0.09 -0.23c-0.47,-1.29 -0.98,-2.57 -1.51,-3.83l-0.08 -0.18c-0.19,-0.46 -0.39,-0.92 -0.6,-1.38 -1.14,-2.56 -2.42,-5.05 -3.83,-7.46 -5.17,7.51 -9.55,15.65 -13.15,24.27z"/>
    <path class="fil33" d="M178.13 79.78c3.6,-8.62 7.98,-16.76 13.15,-24.27 -1.25,-2.51 -2.82,-4.7 -4.38,-7.05 -7.36,10.65 -16.92,19.89 -27.88,26.93 6.27,2.04 12.53,3.44 19.11,4.39z"/>
    <path class="fil34" d="M178.13 79.78c-6.58,-0.95 -12.84,-2.35 -19.11,-4.39 -12.84,8.46 -27.87,13.94 -44.16,15.66 3.45,25.05 15.98,47.13 34.14,62.79 5.48,-8.92 12.37,-16.59 20.52,-22.86 0,-2.04 -0.16,-3.91 -0.16,-5.95 0,-15.97 3.13,-31.32 8.77,-45.25z"/>
    <path class="fil35" d="M120.96 187.1c-3.01,-39.42 -28.67,-72.88 -63.88,-86.49 -2.03,16.9 -8.14,32.4 -17.53,45.71 0.2,0.31 0.4,0.62 0.6,0.92 0.18,0.23 0.35,0.44 0.49,0.65 29.43,3.76 55.74,18.47 74.68,39.45 1.9,-0.03 3.78,-0.1 5.64,-0.24z"/>
    <path class="fil33" d="M159.02 75.39c-15.66,-5.01 -29.75,-13.94 -41.18,-25.36 -2.5,8.76 -3.76,18 -3.76,27.55 0,4.54 0.31,9.09 0.78,13.47 16.29,-1.72 31.32,-7.2 44.16,-15.66z"/>
    <path class="fil36" d="M98.89 48.3l8.93 0c2.97,0 5.17,2.51 4.7,5.48l-2.35 17.86 15.34 0 2.35 -17.86c0.47,-2.97 3.29,-5.48 6.27,-5.48l8.92 0c2.98,0 5.01,2.51 4.7,5.48l-2.35 17.69 17.85 0c2.98,0 5.17,2.36 4.86,5.33l-1.26 8.93c-0.31,2.98 -3.13,5.32 -6.1,5.32l-18.01 0.16 -2.04 15.18 18.01 -0.15c3.13,0 5.17,2.51 4.85,5.48l-1.09 8.77c-0.47,2.97 -3.29,5.48 -6.27,5.48l-18 0 -2.51 18.01c-0.31,2.97 -3.13,5.48 -6.11,5.48l-8.92 0c-2.98,0 -5.17,-2.51 -4.7,-5.48l2.35 -17.85 -15.35 0 -2.34 17.85c-0.48,2.97 -3.14,5.48 -6.27,5.48l-8.77 0c-3.13,0 -5.16,-2.51 -4.85,-5.48l2.35 -17.7 -17.86 0c-2.97,0 -5.16,-2.35 -4.69,-5.32l1.09 -8.93c0.32,-2.97 3.14,-5.32 6.11,-5.32l18.01 -0.16 2.03 -15.19 -18 0c-2.98,0 -5.17,-2.34 -4.86,-5.32l1.26 -8.77c0.31,-2.97 3.13,-5.48 6.1,-5.48l18.17 -0.15 2.35 -17.86c0.31,-2.97 3.13,-5.48 6.1,-5.48zm8.77 42.91l0 0 -2.03 15.34 15.34 -0.16 2.04 -15.18 -15.35 0z"/>
   </g>
   <rect class="fil37" width="829.93" height="211.52"/>
  </g>
 </g>
</svg>
